<?xml version="1.0" encoding="UTF-8" standalone="no"?>
<!-- Created with Inkscape (http://www.inkscape.org/) -->

<svg
   width="129.96257mm"
   height="108.19468mm"
   viewBox="0 0 129.96257 108.19468"
   version="1.1"
   id="svg1"
   inkscape:version="1.4.3 (0d15f75, 2025-12-25)"
   sodipodi:docname="doodle-asterisk.svg"
   xmlns:inkscape="http://www.inkscape.org/namespaces/inkscape"
   xmlns:sodipodi="http://sodipodi.sourceforge.net/DTD/sodipodi-0.dtd"
   xmlns="http://www.w3.org/2000/svg"
   xmlns:svg="http://www.w3.org/2000/svg">
  <sodipodi:namedview
     id="namedview1"
     pagecolor="#ffffff"
     bordercolor="#000000"
     borderopacity="0.25"
     inkscape:showpageshadow="2"
     inkscape:pageopacity="0.0"
     inkscape:pagecheckerboard="0"
     inkscape:deskcolor="#d1d1d1"
     inkscape:document-units="mm"
     inkscape:zoom="0.77326038"
     inkscape:cx="231.48735"
     inkscape:cy="204.32962"
     inkscape:window-width="1920"
     inkscape:window-height="1112"
     inkscape:window-x="-8"
     inkscape:window-y="-8"
     inkscape:window-maximized="1"
     inkscape:current-layer="layer1" />
  <defs
     id="defs1" />
  <g
     inkscape:label="Layer 1"
     inkscape:groupmode="layer"
     id="layer1"
     transform="translate(-43.656249,-94.456249)">
    <path
       id="path19"
       d="m 121.04358,94.90063 0.69991,6.1983 -14.20601,38.0365 c 1.85455,0.41628 2.88854,-0.41627 4.37374,-1.143 14.16261,-6.95325 30.85394,-21.88633 45.36616,-29.60864 5.51533,-3.18558 11.69388,1.38995 9.98855,7.43656 -2.21368,7.84931 -47.1865,29.77797 -44.98022,31.9158 7.98089,1.85209 15.63476,3.31259 23.94796,2.45887 7.08731,-0.73025 13.74422,-5.46453 20.80119,-4.84717 4.41643,0.38805 8.79722,6.25475 5.33682,9.48619 -3.30905,3.08681 -26.70986,6.75217 -32.3342,6.49111 -10.47256,-0.4833 -17.97367,-3.84175 -27.57875,-6.18772 l 2.00554,1.44992 13.78797,38.79145 c 1.1945,2.56469 -5.17702,6.63927 -7.06508,7.07319 -11.45434,2.63525 -14.73518,-21.66409 -16.73401,-28.29631 -0.48049,-1.59808 -1.99179,-2.68816 -2.50508,-4.24744 -0.75636,-2.29659 1.81116,-5.30931 -2.417939,-7.39775 l -6.735585,11.66636 c -3.494972,4.94594 -5.49275,20.89149 -10.220325,23.05755 -1.660173,0.762 -2.267657,0.78317 -3.358446,-0.85018 -3.993089,-5.97254 3.169356,-21.11729 4.958998,-27.74245 -7.126111,3.19616 -27.074283,24.53922 -34.357733,21.54413 -2.335035,-0.95955 -5.249685,-5.2705 -2.573512,-7.4683 l 35.708163,-28.21517 c -4.174418,-0.59972 -39.39963,-4.68841 -39.29521,-8.59719 0.123122,-4.62492 20.235334,-0.72672 23.889055,-0.56092 5.110337,0.22578 10.305343,-0.25753 15.412153,-0.0635 -7.109883,-8.72419 -14.52245,-18.97944 -19.345978,-29.1853 -3.729921,-7.89164 -7.866592,-19.773196 5.941835,-14.53797 5.705123,8.81591 10.321925,19.04999 17.127712,27.10744 1.432631,1.69686 9.39165,10.41047 11.006666,9.24983 4.277076,-10.22703 7.888816,-22.19325 12.869686,-32.00047 1.137,-2.24014 7.23653,-13.853583 10.48597,-11.01372"
       style="fill:black;fill-opacity:1;fill-rule:nonzero;stroke:none;stroke-width:0.0352777" />
  </g>
</svg>
