<svg viewBox="0 0 202.04646 249.90973" xmlns="http://www.w3.org/2000/svg" preserveAspectRatio="xMidYMid meet">
<g transform="translate(-7.408298,-23.547916)" fill="black">
<path
       id="path78"
       d="m 47.104804,145.6664 c -1.252352,-1.77448 -2.293064,-3.175 -3.626564,-4.62846 l -1.710955,1.43229 c 0.508,1.17827 1.146519,2.43417 1.996705,3.90525 0.289295,0.49388 0.719666,1.23471 1.252378,2.15546 0.268103,0.45863 0.560917,0.96308 0.864288,1.50638 0.680879,1.20295 1.404065,2.48708 2.162546,3.83116 0.388038,0.68438 0.783166,1.38642 1.185333,2.09902 0.391583,0.71615 0.790205,1.4464 1.195917,2.18723 0.811371,1.48519 1.640416,3.00919 2.487083,4.55788 0.821955,1.55929 1.658038,3.14325 2.490602,4.72723 0.419815,0.79023 0.836084,1.58398 1.252352,2.37418 0.405713,0.7973 0.811398,1.59105 1.213565,2.38125 0.800814,1.58398 1.594564,3.1468 2.370666,4.6708 0.751417,1.5381 1.485186,3.03387 2.19075,4.4732 1.425231,2.86808 2.649353,5.54567 3.721815,7.80346 1.0795,2.25425 1.901454,4.13809 2.501185,5.43984 0.592667,1.30175 0.924269,2.03552 0.924269,2.03552 0,0 0.08115,0.18343 0.239898,0.52916 0.155231,0.34925 0.391583,0.85373 0.673814,1.51342 0.571474,1.31233 1.389936,3.19617 2.388288,5.48923 0.994834,2.29304 2.106084,5.0165 3.347853,7.96925 0.596212,1.4887 1.220628,3.03387 1.855628,4.62137 0.638519,1.5875 1.294686,3.21382 1.919103,4.8754 0.635,1.65452 1.277064,3.33023 1.919102,5.0024 0.620897,1.6792 1.23825,3.35843 1.845045,5.01295 0.306917,0.8255 0.606769,1.64748 0.906621,2.4624 0.28575,0.81492 0.5715,1.62277 0.850212,2.42006 0.553853,1.57692 1.090084,3.10796 1.601603,4.572 0.892519,2.64229 1.622769,4.80836 1.986147,5.89137 0.687917,1.99322 1.298205,3.53132 1.993186,4.953 0.694981,1.42524 1.464019,2.73405 2.416519,4.28625 -0.112871,-1.81326 -0.239871,-3.3302 -0.493871,-4.90008 -0.254,-1.56985 -0.631481,-3.19262 -1.30175,-5.20345 -0.363379,-1.09009 -1.072462,-3.2738 -1.979084,-5.92667 -0.515064,-1.47108 -1.054814,-3.01273 -1.608666,-4.59671 -0.282231,-0.80079 -0.567981,-1.61219 -0.85725,-2.43417 -0.299879,-0.81843 -0.60325,-1.64393 -0.906648,-2.4765 -0.613833,-1.66158 -1.234731,-3.34785 -1.859148,-5.03767 -0.642037,-1.6792 -1.291166,-3.3655 -1.929685,-5.02708 -0.627936,-1.66862 -1.291167,-3.302 -1.929686,-4.89654 -0.642064,-1.59808 -1.27,-3.15031 -1.869731,-4.64608 -1.252352,-2.96688 -2.367147,-5.70796 -3.372564,-8.01158 -1.001871,-2.30013 -1.827371,-4.19455 -2.402417,-5.51392 -0.28575,-0.66323 -0.522102,-1.17123 -0.680852,-1.52048 -0.155231,-0.34925 -0.239898,-0.53269 -0.239898,-0.53269 0,0 -0.335121,-0.73731 -0.927788,-2.04964 -0.599731,-1.30527 -1.425231,-3.19969 -2.50825,-5.46807 -1.075981,-2.26835 -2.307166,-4.96004 -3.739435,-7.84577 -0.709084,-1.44639 -1.442879,-2.95275 -2.197815,-4.49791 -0.779647,-1.53107 -1.576916,-3.10444 -2.38125,-4.69548 -0.405685,-0.79375 -0.811397,-1.59102 -1.217083,-2.39184 -0.419814,-0.79727 -0.839602,-1.59454 -1.259416,-2.39183 -0.839603,-1.59102 -1.679232,-3.18204 -2.504732,-4.74837 -0.846666,-1.55575 -1.682749,-3.09034 -2.497666,-4.58259 -0.409205,-0.74437 -0.811371,-1.47814 -1.202955,-2.20133 -0.405712,-0.71615 -0.804333,-1.41817 -1.192397,-2.10608 -0.762,-1.35115 -1.49225,-2.64232 -2.176648,-3.85234 -0.303371,-0.54681 -0.599705,-1.05129 -0.871352,-1.51341 -0.543269,-0.92075 -0.977186,-1.66159 -1.27,-2.159 -0.871353,-1.47109 -1.654519,-2.64938 -2.430648,-3.67242 l -1.710955,1.43227 c 1.629834,1.11125 3.167936,1.93675 5.104686,2.91748 z" />
<path
       id="path79"
       d="m 42.772702,143.3804 c 1.545166,0.97719 2.836333,1.76387 4.240371,2.47296 1.393481,0.73379 2.871629,1.45346 4.829545,2.19429 0.744353,0.28575 1.982603,0.83254 3.499538,1.46754 0.680879,0.29633 1.379379,0.59621 2.091981,0.90313 2.151936,1.01952 4.370917,2.00729 6.544019,3.175 0.550333,0.2822 1.100667,0.56795 1.651,0.8537 0.275167,0.14113 0.553879,0.28223 0.829045,0.4304 l 0.814917,0.46215 c 1.090083,0.61383 2.187205,1.2347 3.291417,1.85912 1.097121,0.64206 2.169557,1.32998 3.266704,2.00025 0.546815,0.33867 1.097148,0.67029 1.643936,1.01954 0.536231,0.35984 1.072462,0.71967 1.612212,1.0795 0.53975,0.36336 1.0795,0.72671 1.622769,1.09009 0.543269,0.36335 1.086564,0.72318 1.612185,1.11477 1.061879,0.77258 2.12725,1.54868 3.196167,2.32481 1.061879,0.78669 2.088462,1.62983 3.139731,2.44827 0.522102,0.41627 1.054814,0.81844 1.569852,1.24531 0.508,0.43392 1.016,0.86784 1.527546,1.30175 0.511519,0.43392 1.023038,0.86784 1.534583,1.30527 l 0.765519,0.65617 0.744352,0.68085 c 0.994834,0.91371 1.986148,1.8274 2.9845,2.74109 1.919129,1.905 3.877046,3.78531 5.700899,5.80321 l 1.38993,1.49225 c 0.46567,0.49741 0.89255,1.02303 1.34409,1.53458 l 1.32998,1.54517 0.66675,0.77258 0.35277,0.41275 0.60325,0.75494 c 1.60163,2.01435 3.20675,4.02873 4.80838,6.03956 l 0.5997,0.75494 0.0741,0.0952 c 0.0388,0.06 0.0318,0.0106 0.0246,-0.0388 l -0.0246,-0.25752 -0.0459,-0.51506 -0.1905,-2.05317 c -0.127,-1.36877 -0.254,-2.73754 -0.381,-4.10279 -0.53975,-5.82083 -1.07598,-11.60639 -1.6016,-17.30375 -0.9878,-10.668 -1.94733,-21.01146 -2.83988,-30.65639 -0.89252,-9.64142 -1.72154,-18.58079 -2.45179,-26.44421 -0.31398,-3.39373 -0.60679,-6.55463 -0.87489,-9.44388 0.003,0.0106 0,0.007 -0.007,0 l -0.003,-0.003 c 0.127,0.10936 0.25048,0.21874 0.37042,0.32809 0.27868,0.2399 0.54681,0.47977 0.81492,0.7126 0.53623,0.46567 1.04423,0.93488 1.5381,1.37938 12.71413,11.4441 22.53546,21.7946 30.30715,30.59287 7.75051,8.82298 13.47258,16.09373 17.75531,21.75933 1.0795,1.4111 2.03904,2.74815 2.94568,3.96169 0.22225,0.3034 0.4445,0.60325 0.65969,0.89254 0.10583,0.14817 0.21521,0.29279 0.32105,0.43392 0.17991,0.254 0.35983,0.50445 0.5362,0.75142 0.74438,1.04068 1.45698,2.03552 2.13431,2.9845 0.67734,0.94543 1.32292,1.84853 1.93675,2.70578 0.3034,0.42688 0.60325,0.84667 0.89252,1.25238 0.14817,0.20109 0.2893,0.40217 0.4304,0.59971 l 0.10583,0.14816 0.0529,0.0741 c 0.014,0.0246 0.007,-0.007 0.007,-0.0177 l -0.003,-0.0423 c -0.007,-0.11642 -0.0106,-0.22932 -0.0177,-0.34221 -0.10583,-1.81327 -0.19757,-3.41842 -0.28223,-4.826 -0.0811,-1.41111 -0.15169,-2.62467 -0.21167,-3.65125 -0.0282,-0.51152 -0.0564,-0.98071 -0.0812,-1.40052 -0.0106,-0.21167 -0.0212,-0.40923 -0.0353,-0.59973 0,-0.10936 -0.003,-0.21167 -0.003,-0.31044 -0.014,-0.7479 -0.0212,-1.10067 -0.0212,-1.10067 0,0 -0.014,-0.98777 -0.0459,-2.85398 -0.007,-0.46566 -0.0177,-0.98777 -0.0246,-1.56279 -0.014,-0.57504 0.0212,-1.19946 0.0318,-1.88031 0.0317,-1.35819 0.0706,-2.921 0.11642,-4.67431 0.1129,-1.74977 0.23635,-3.69359 0.37748,-5.81377 0.0882,-1.05834 0.21871,-2.15548 0.33512,-3.29848 0.13055,-1.143 0.2258,-2.33186 0.39513,-3.55246 0.17637,-1.22063 0.35983,-2.48004 0.55033,-3.78179 0.0988,-0.64911 0.18696,-1.30879 0.29634,-1.97554 0.12345,-0.66323 0.25045,-1.33705 0.37745,-2.02142 0.26107,-1.36525 0.50448,-2.77283 0.7973,-4.20513 0.32808,-1.4252 0.65968,-2.8857 1.00187,-4.38147 1.45346,-5.9549 3.3514,-12.36488 5.86671,-19.01121 2.54352,-6.635753 5.70794,-13.500791 9.56379,-20.348207 0.23638,-0.430398 0.47625,-0.860795 0.71263,-1.291167 l 0.17991,-0.324564 0.0529,-0.09173 0.014,-0.02461 0.0529,-0.08819 0.22225,-0.363379 0.10935,-0.179916 0.0459,-0.0776 v -0.0034 -0.01402 c -0.06,1.61925 -0.11996,3.252628 -0.17992,4.896564 -0.06,2.088436 -0.12348,4.194519 -0.18346,6.311186 -0.1411,4.233333 -0.21166,8.526647 -0.31395,12.855233 -0.0353,2.16252 -0.0706,4.33565 -0.10584,6.51933 -0.0282,2.18369 -0.0706,4.37092 -0.0811,6.56873 -0.16934,17.57186 -0.0212,35.54939 0.48683,53.01544 0.22931,8.73125 0.58208,17.3355 0.9525,25.70337 0.21519,4.18042 0.39865,8.3044 0.635,12.35075 0.11642,2.02496 0.23283,4.02873 0.34573,6.01488 0.06,0.99129 0.11994,1.97908 0.17992,2.96333 0.0529,0.81844 0.10583,1.63335 0.15875,2.44121 0.18343,2.794 0.33512,5.08354 0.4092,6.22654 0.32457,4.21921 0.97367,6.58283 2.10257,10.04004 0.62441,-3.59127 0.92427,-6.01133 0.64558,-10.22702 -0.0741,-1.143 -0.21873,-3.429 -0.39158,-6.21594 -0.0529,-0.80787 -0.10584,-1.61925 -0.15875,-2.43771 -0.06,-0.9807 -0.11994,-1.96495 -0.17992,-2.95627 -0.1129,-1.9826 -0.22931,-3.98285 -0.34219,-6.00427 -0.23989,-4.03579 -0.41981,-8.15271 -0.635,-12.32606 -0.37041,-8.35025 -0.72321,-16.93685 -0.9525,-25.65048 -0.508,-17.43075 -0.65264,-35.37302 -0.48683,-52.9096 0.007,-2.19427 0.0529,-4.37796 0.0811,-6.55812 0.0353,-2.17665 0.0706,-4.34623 0.10584,-6.50523 0.10231,-4.321525 0.16933,-8.604256 0.31046,-12.830525 0.06,-2.113147 0.12345,-4.212166 0.18343,-6.297083 0.0917,-2.532962 0.18344,-5.044731 0.27517,-7.535333 0.0776,-2.060231 0.15169,-4.113398 0.22577,-6.155981 l 0.0565,-1.531064 c 0.067,-0.455084 -0.13054,0.0071 -0.23638,0.155231 l -0.37041,0.60325 c -0.49036,0.807852 -0.97719,1.612185 -1.46754,2.416519 -0.97721,1.605147 -1.94734,3.203231 -2.91748,4.794249 l -0.72319,1.192398 -0.17992,0.296333 -0.0917,0.151686 -0.0459,0.08115 -0.18346,0.331602 c -0.24342,0.437462 -0.48329,0.878417 -0.72671,1.315879 -3.92641,6.974416 -7.14729,13.962935 -9.73666,20.718619 -2.55765,6.7663 -4.48734,13.29267 -5.96548,19.3534 -0.34925,1.52048 -0.68792,3.00567 -1.01952,4.4591 -0.29988,1.45698 -0.54682,2.88925 -0.8114,4.27919 -0.13052,0.69498 -0.25752,1.37938 -0.38452,2.05671 -0.1129,0.67733 -0.20108,1.35112 -0.29988,2.01083 -0.19402,1.32292 -0.381,2.60702 -0.56091,3.84879 -0.16934,1.2418 -0.26811,2.45181 -0.40217,3.61598 -0.11642,1.16417 -0.25046,2.28248 -0.34219,3.35844 -0.13758,2.159 -0.2681,4.13808 -0.381,5.91963 -0.0459,1.78503 -0.0847,3.37608 -0.11993,4.75895 -0.0106,0.69146 -0.0459,1.32998 -0.0317,1.91558 0.0106,0.58563 0.0212,1.1148 0.0282,1.59105 0.0318,1.90145 0.0494,2.90687 0.0494,2.90687 0,0 0.003,0.35631 0.0177,1.11831 0,0.0917 0.003,0.1905 0.003,0.29282 0.003,0.0282 0.003,0.0529 0.007,0.0811 0.003,0.0565 0.007,0.11996 0.0106,0.1905 0.007,0.13758 0.0177,0.29988 0.0282,0.49038 0.0106,0.1905 0.0246,0.40568 0.0353,0.6491 l 0.003,0.0459 c 0.003,0.0212 -0.0106,-0.007 -0.014,-0.0106 l -0.0388,-0.0529 c -0.0246,-0.0353 -0.0529,-0.0741 -0.0776,-0.11287 -0.0565,-0.0776 -0.11289,-0.15523 -0.17287,-0.2399 -0.0635,-0.0847 -0.12346,-0.17639 -0.1905,-0.2681 -0.33867,-0.45863 -0.69496,-0.94191 -1.06538,-1.44288 -0.91371,-1.22412 -1.87679,-2.5682 -2.96687,-3.98991 -4.31446,-5.71146 -10.07886,-13.03512 -17.88584,-21.92161 -7.82812,-8.86531 -17.72002,-19.29341 -30.52937,-30.8257 -0.49742,-0.44804 -1.00896,-0.92075 -1.54871,-1.38996 -0.69144,-0.60677 -1.40052,-1.23119 -2.13429,-1.87325 -1.13948,-1.00187 -2.31071,-2.028456 -3.51367,-3.086789 l -0.45508,-0.398648 -0.22579,-0.197564 -0.0564,-0.04937 c -0.0212,-0.02117 -0.003,0.03527 -0.007,0.04937 l 0.014,0.151712 c 0.0388,0.405685 0.0741,0.811371 0.11287,1.220602 0.0776,0.814917 0.15171,1.643937 0.22932,2.480017 0.35276,3.80296 0.73731,7.96221 1.15006,12.42838 0.7267,7.86342 1.55575,16.80279 2.44827,26.44772 0.89252,9.64142 1.84856,19.98488 2.83633,30.65288 0.4586,4.97062 0.92427,10.01184 1.397,15.08829 l -0.003,-0.014 v -0.007 c -0.003,-0.007 0.007,0.003 -0.007,-0.014 l -0.0388,-0.0494 -0.32101,-0.40216 -2.3989,-2.78342 c -0.4586,-0.5221 -0.89604,-1.06185 -1.36877,-1.56633 l -1.42169,-1.524 c -1.85914,-2.05669 -3.855876,-3.97934 -5.817311,-5.92313 -1.016,-0.93487 -2.032,-1.86621 -3.044481,-2.794 l -0.758455,-0.6985 -0.783167,-0.67029 c -0.522128,-0.4445 -1.040712,-0.88546 -1.562814,-1.32996 -0.522102,-0.4445 -1.040686,-0.88548 -1.562814,-1.32646 -0.522103,-0.43743 -1.065372,-0.84666 -1.598084,-1.27 -1.072435,-0.83608 -2.120185,-1.69333 -3.203204,-2.49766 -1.090084,-0.79375 -2.180167,-1.58396 -3.259667,-2.37067 -0.536231,-0.40217 -1.093629,-0.76904 -1.647481,-1.13946 -0.553852,-0.37041 -1.104186,-0.74083 -1.654519,-1.11125 -0.550333,-0.36689 -1.097148,-0.73731 -1.647481,-1.10421 -0.553852,-0.35277 -1.118314,-0.69143 -1.672167,-1.03716 -1.118314,-0.68438 -2.218981,-1.38642 -3.333749,-2.03904 -1.128898,-0.63855 -2.247186,-1.27 -3.358436,-1.89796 l -0.832564,-0.47271 c -0.278686,-0.15171 -0.564436,-0.29281 -0.846667,-0.44098 -0.560917,-0.28927 -1.121833,-0.57856 -1.68275,-0.86783 -2.218955,-1.1924 -4.480269,-2.19782 -6.681602,-3.2385 -0.543269,-0.26811 -1.11125,-0.47977 -1.661584,-0.72319 l -0.179916,-0.0741 c -0.09877,-0.0423 -0.197565,-0.0812 -0.292815,-0.12348 -1.548685,-0.64559 -2.815166,-1.19944 -3.577166,-1.48167 -2.003769,-0.73731 -3.605371,-1.23473 -5.17525,-1.54165 -1.576917,-0.2822 -3.100917,-0.43037 -4.907121,-0.56795 z" />
<path
       id="path80"
       d="m 90.609341,254.9005 c 0.05292,1.143 0.109379,2.16607 0.201084,3.16442 0.02823,0.24693 0.05292,0.4939 0.07763,0.74435 l 0.04585,0.37042 0.02117,0.18698 0.0635,0.31043 c 0.169334,0.83963 0.377481,1.77097 0.620898,2.7799 0.458602,-0.21873 0.948955,-0.45508 1.478121,-0.71966 0.490379,-0.24694 0.998379,-0.50449 1.524,-0.76907 0.60325,-0.29279 1.241796,-0.62442 1.929712,-0.99835 0.500936,-0.27517 1.248834,-0.6844 2.176622,-1.19592 1.337042,-0.6985 2.935122,-1.53106 4.684892,-2.44475 1.11477,-0.59618 2.30717,-1.16768 3.52425,-1.77093 1.21709,-0.59973 2.47298,-1.21709 3.74298,-1.84505 1.28762,-0.59618 2.58937,-1.2065 3.89467,-1.81327 0.65262,-0.3034 1.30879,-0.60677 1.95792,-0.91016 0.65968,-0.28575 1.31585,-0.57502 1.9685,-0.86077 1.30527,-0.5715 2.59995,-1.13948 3.85937,-1.68982 1.27,-0.52565 2.50825,-1.03716 3.70065,-1.52752 2.37418,-1.00189 4.59316,-1.82739 6.46641,-2.55413 0.9384,-0.35628 1.78859,-0.6985 2.55059,-0.97012 0.75848,-0.27164 1.41816,-0.51154 1.96143,-0.70556 1.08305,-0.38807 1.69333,-0.60677 1.69333,-0.60677 0,0 0.36338,-0.13055 1.02307,-0.3669 0.3316,-0.11993 0.73731,-0.26106 1.21002,-0.4304 0.47273,-0.15875 1.016,-0.33866 1.61573,-0.5362 1.20298,-0.40217 2.63525,-0.87842 4.2404,-1.41113 1.61218,-0.49742 3.3937,-1.04775 5.28108,-1.62983 3.77825,-1.12887 7.99042,-2.31069 12.10733,-3.34785 2.0461,-0.55034 4.09221,-0.99132 6.02192,-1.45344 1.9332,-0.47273 3.77825,-0.85021 5.45393,-1.20298 3.14325,-0.6844 5.10469,-1.0301 6.12775,-1.22767 4.1275,-0.82198 6.40644,-1.61218 9.76136,-3.06565 -3.6195,-0.28575 -6.09246,-0.42685 -10.26936,0.35984 -1.03364,0.1905 -3.01273,0.53271 -6.19125,1.22415 -1.68981,0.35276 -3.556,0.73376 -5.50333,1.21001 -1.95085,0.46922 -4.0146,0.91017 -6.0819,1.47109 -4.1557,1.04423 -8.40668,2.24015 -12.22375,3.38315 -1.90145,0.58914 -3.70062,1.14651 -5.33045,1.651 -1.61573,0.53975 -3.06565,1.02306 -4.27567,1.42875 -0.60679,0.20108 -1.15358,0.38451 -1.63338,0.54326 -0.47625,0.16934 -0.88545,0.3175 -1.2206,0.43392 -0.66675,0.2399 -1.03365,0.37396 -1.03365,0.37396 0,0 -0.61735,0.21871 -1.71095,0.61029 -0.54681,0.19757 -1.21005,0.43392 -1.97908,0.70908 -0.76907,0.27517 -1.62632,0.6209 -2.5753,0.97722 -1.89442,0.73377 -4.13102,1.56633 -6.52992,2.57527 -1.20295,0.49389 -2.45533,1.00893 -3.73943,1.5381 -1.27352,0.5574 -2.57527,1.12538 -3.89467,1.70391 -0.65968,0.2893 -1.32291,0.57857 -1.98966,0.87138 -0.65617,0.30337 -1.31586,0.61029 -1.97557,0.91721 -1.31937,0.61031 -2.63525,1.22415 -3.93345,1.8274 -1.28413,0.63148 -2.55059,1.25589 -3.7818,1.86266 -1.22767,0.61032 -2.43062,1.18534 -3.556,1.78859 -1.76742,0.92781 -3.376079,1.76741 -4.7272,2.4765 -0.934879,0.51858 -1.689815,0.93839 -2.19075,1.21708 -0.691462,0.38452 -1.315879,0.75493 -1.890898,1.11125 l -0.109352,0.067 -0.04588,0.0317 v 0.004 l -0.0071,0.0212 c -0.0034,0.014 -0.01058,0.0317 -0.02461,0.0529 -0.02117,0.0423 -0.0635,0.0953 -0.123455,0.16578 -0.05292,0.007 -0.134064,-0.0318 -0.246962,-0.13758 l -0.04233,-0.0459 -0.08112,-0.16582 -0.165815,-0.33512 c -0.112897,-0.22225 -0.229314,-0.4445 -0.342185,-0.66675 -0.469212,-0.88548 -0.977212,-1.77448 -1.559296,-2.75873 z" />
<path
       id="path127"
       d="m 14.515202,115.03823 c 1.940269,4.29684 8.554852,4.53319 12.079102,1.40052 3.52425,-3.13266 4.547315,-8.2056 4.713102,-12.9187 0.09525,-2.667 -0.123454,-5.609168 -1.972018,-7.535334 -2.169584,-2.264833 -5.909019,-2.275417 -8.773584,-0.998379 -10.033,4.47675 -9.782519,18.661963 -7.404814,29.386393" />
<path
       id="path128"
       d="m 74.370989,60.033133 c 1.940269,4.296833 8.551333,4.533186 12.075583,1.400519 3.52425,-3.132667 4.550834,-8.205602 4.716648,-12.918731 0.09525,-2.667 -0.123481,-5.609167 -1.972045,-7.535333 -2.173103,-2.264834 -5.909019,-2.275417 -8.777102,-0.998352 -10.029455,4.473231 -9.782519,18.661935 -7.404815,29.386397" />
<path
       id="path129"
       d="m 181.39317,48.8783 c 1.9403,4.296833 8.55134,4.533185 12.07559,1.400519 3.52425,-3.132667 4.55083,-8.205602 4.71664,-12.918731 0.0953,-2.670519 -0.127,-5.609167 -1.97201,-7.535333 -2.17313,-2.268353 -5.90905,-2.275417 -8.77713,-0.998353 -10.02946,4.473231 -9.78252,18.661936 -7.40479,29.386398" />
</g>
</svg>