<svg viewBox="0 0 207.02979 205.4785" xmlns="http://www.w3.org/2000/svg" preserveAspectRatio="xMidYMid meet">
<g transform="translate(147.37292,-43.656231)" fill="black">
<path
       id="path22"
       d="m -97.484806,217.76049 -0.01447,-10.43162 c 7.016395,-2.54 7.659158,10.29052 0.01447,10.43162 z m -28.244444,-7.99042 c 4.61962,-4.2686 11.43847,-2.89629 17.17287,-3.05504 -0.71544,13.63486 -11.06946,11.50761 -17.17287,3.05504 z m 51.379611,-5.8561 c -1.964619,-6.70631 -8.825087,-2.82927 -9.594496,-3.35844 -0.934156,-0.64206 -3.093508,-17.02506 -9.059687,-20.39408 -13.337468,-7.53533 -10.151178,18.01283 -14.811378,21.75227 -3.52954,2.83281 -19.59398,-0.84667 -22.96054,4.37092 -5.09799,7.90575 4.75086,13.8571 8.68645,19.47685 -4.29436,2.42006 -12.54054,13.10923 -10.4715,17.76942 1.50565,3.39021 9.59379,6.33237 12.99386,5.44337 0.79058,-0.20814 13.03055,-6.43114 14.59795,-7.34483 2.46873,-1.44288 3.86503,-5.11529 6.879514,-5.42573 4.525433,-0.46919 9.530644,3.6971 13.823598,4.57552 4.536017,0.92781 9.367306,-1.69685 13.758331,-2.18017 1.705681,-8.03627 -6.892571,-13.01043 -7.229827,-20.30587 -0.249412,-5.3975 4.695118,-9.92013 3.387725,-14.37923 z m 7.588602,-127.483313 c -1.893711,-7.288371 5.809546,-5.672666 11.053233,-7.355416 -0.378884,2.194295 -10.112021,8.449045 -11.053233,7.355416 z m -12.347927,8.011583 c -1.231194,0.560917 -6.188779,0.546815 -6.767335,-0.567954 -0.228248,-0.440981 0.334081,-9.535583 0.684389,-9.884833 0.263877,-0.264584 5.773561,0.303371 7.351887,-1.23825 -1.00612,3.566583 2.575277,9.93775 -1.268941,11.691037 z m -0.556683,-28.888954 c 2.756251,3.90525 1.713441,9.027583 1.829858,13.514917 h -4.901846 c -0.853723,-0.829046 0.738717,-12.110879 3.071988,-13.514917 z m -23.491123,27.107436 c -11.24549,-0.970148 -22.92773,1.157102 -33.65817,-2.550584 0.29034,-2.109602 1.663,-1.700397 3.01272,-1.9685 3.19053,-0.635 32.4739,-3.915833 33.852556,-2.921 z m -4.15431,20.813898 c -0.40569,-2.32482 1.43299,-4.092232 3.67454,-3.675963 z m 40.551455,-36.872334 c -0.982133,-35.729333 -26.992439,-26.010314 -27.053116,3.683 -8.613069,0.98425 -48.492479,1.795621 -52.968529,6.685121 -3.00213,3.277315 6.25652,12.73175 9.05546,14.513295 6.28685,4.0005 15.89969,3.256122 23.02651,4.631955 1.07738,1.368795 -20.87704,23.427983 -20.89997,27.657793 -0.0145,2.71992 3.98851,5.59504 6.62411,5.49979 3.27131,-0.11994 13.48211,-5.97604 16.64899,-8.0645 3.89114,-2.5682 24.410462,-21.04319 26.508431,-21.04319 6.64069,-0.007 15.377583,28.73727 25.838856,27.45669 2.154767,-0.26458 8.615537,-6.62517 7.657393,-9.85308 L -64.130021,86.85524 c 17.927463,-11.133666 29.847468,-30.585832 -2.629604,-20.252954 z m 93.40497,77.427664 2.429938,-8.59366 c 1.534213,3.86291 1.887009,6.70628 -2.429938,8.59366 z m -20.9045545,9.82134 7.3610625,-9.8143 c -0.10654,5.26346 -0.652991,11.13367 -7.3610625,9.8143 z m -13.5184434,18.43262 c 3.5845749,-4.64609 3.2455564,-7.97277 9.8220396,-4.8895 z m 3.6805314,-25.78804 c 0.4159249,0.4092 -1.1158379,4.65312 -1.3518462,4.79777 -3.3016455,2.0461 -17.7778803,-4.00402 1.3518462,-4.79777 z M 35.166336,125.01874 c -13.112041,-33.887833 -14.517156,2.43065 -18.287998,4.95655 -1.509889,1.00893 -4.546248,0.16933 -6.495343,0.87841 -6.8650564,2.49412 -14.1827249,7.52475 -20.878448,9.84602 -3.858683,1.3335 -19.095508,2.92807 -20.067058,4.53673 -3.608562,5.96546 8.939742,15.01421 14.179904,16.0161 0.507646,0.74084 -9.663289,11.91684 -10.773833,14.4004 -0.5842,1.30879 -2.694165,9.49325 -2.512483,9.97302 0.04974,0.13406 1.726493,0.3034 2.198158,1.08656 0.700617,1.16417 2.291644,4.65667 2.775654,4.953 4.447117,2.69875 17.5013062,-0.55739 22.0821247,-2.52941 4.5656499,-1.96498 13.9541243,-9.10873 18.2636583,-12.49188 2.645481,-2.07433 1.253773,-4.88596 6.643864,-4.91419 3.532717,-0.0177 15.552558,3.34082 18.212493,5.41515 2.16535,1.68979 2.587996,7.1755 4.149381,7.52475 5.4229,1.21708 9.9695,-1.35821 10.155767,-7.01323 0.28575,-8.67127 -5.167842,-10.44927 -8.389408,-17.16617 -1.467194,-3.0621 -1.859836,-6.76626 -3.819181,-9.7296 -0.05609,-3.46429 10.753037,-10.61156 13.101108,-13.29621 13.262689,-15.16237 -10.259483,-15.88558 -20.53836,-12.446" />
</g>
</svg>