<svg viewBox="0 0 183.17456 205.23842" xmlns="http://www.w3.org/2000/svg" preserveAspectRatio="xMidYMid meet">
<g fill="black"><g transform="translate(94.72083,-132.82082)"><path id="path23" d="m 6.0624844,293.90222 c 2.218981,-0.40571 4.0322496,1.65804 4.9177306,3.66183 -2.2189807,0.40217 -4.0322496,-1.66158 -4.9177306,-3.66183 z m 11.6487306,-8.50548 c -1.42875,-5.22817 2.575269,-31.40779 -9.2074996,-25.3506 -7.80698096,4.0146 1.8414996,25.95739 -9.6519999,28.29277 -3.5066287,0.71262 -11.1322645,-3.65125 -11.8773305,3.66537 -0.618067,6.07129 1.851025,3.22086 3.4985056,3.55246 6.3926772,1.28765 14.4818627,6.9356 15.5895938,13.69483 1.0830189,6.58284 0,18.4785 0,25.80569 0,2.39889 5.8525836,3.84175 8.6113146,2.46946 6.011333,-2.9845 -0.836084,-37.82483 9.479121,-40.91165 3.153833,-0.94191 13.9065,0.11994 13.902981,-5.79612 -0.0071,-7.50006 -19.459231,-3.75356 -20.344686,-5.42221 z m -76.165444,-44.37592 c -0.771155,0.007 -9.653746,-7.84928 -14.1351,-4.9036 4.526862,-4.72017 5.833533,-10.14235 8.488548,-15.45167 0.483314,-0.96308 0.450135,-3.84526 2.554816,-1.73918 0.488606,0.49035 1.009994,5.94783 2.417234,8.04333 1.1684,1.74271 6.133041,4.0146 6.158441,4.84717 0.01614,0.5362 -4.948423,9.19691 -5.483939,9.20395 z m 6.450197,-19.94603 c -4.504266,-8.37849 -1.505664,-35.7858 -4.509558,-39.73338 -7.522289,-9.88484 -6.039908,12.11088 -6.373997,14.71438 -0.95213,7.4295 -9.926453,31.71825 -15.218119,36.3996 -5.084234,4.49791 -10.53465,3.23143 -16.615124,4.3039 1.151818,2.32126 -0.01834,7.28133 2.401707,8.63245 2.497667,1.38996 24.850381,-5.56329 28.431411,0.15523 4.510987,7.20725 -1.137709,30.58583 1.115139,38.862 0.637117,2.34244 7.078848,4.30742 9.548283,1.79565 3.709114,-3.77121 0.403939,-29.97555 0.984594,-36.74534 0.135123,-1.58046 3.577881,-14.32279 4.086939,-15.07773 1.465792,-2.16958 11.299111,0.49742 13.469065,-0.89251 0.409919,-0.26107 1.389935,-3.4008 1.341966,-4.1628 -0.48895,-7.7752 -14.746816,-0.9666 -18.662306,-8.25145 z m 104.996535,-29.5769 -8.815917,18.81365 c -2.081371,-8.1915 -6.31825,-16.97215 -13.5255,-21.48417 4.854231,-5.22113 8.075084,-10.80207 9.838981,-17.83292 5.623269,4.13102 10.823231,11.0631 18.415,11.06662 z m 22.517814,-16.80985 c -14.820186,1.5875 -29.337,-4.05342 -31.347833,-20.28473 -0.705564,-5.67974 0,-13.6384 0,-19.66384 0,-1.69333 -4.928314,-3.4149 -7.20725,0.26107 -1.940269,3.12912 -1.770936,23.60787 -2.991564,30.09545 -1.026584,5.461 -2.310686,10.70681 -5.383372,15.43756 -5.182314,7.97277 -9.517961,3.54542 -16.054916,6.13834 -1.531064,0.60677 -7.5988332,5.2705 -7.7822953,7.08025 -1.11125,10.98198 15.5398783,-0.21519 21.0537953,1.06891 1.580435,0.3669 6.946185,7.72232 7.799916,9.47209 6.219455,12.7776 1.344084,29.1959 3.132667,42.34039 0.903102,6.66396 7.761102,8.45609 9.637871,2.14136 0.878417,-2.95627 -0.148167,-6.50169 0.261065,-9.56382 1.583981,-11.80745 8.152685,-51.38912 20.813897,-55.38258 5.767917,-1.82385 20.581038,-0.94192 21.007916,-9.73312 0.22225,-4.56496 -10.135314,0.29279 -12.939897,0.59267"  /></g></g>
</svg>