<svg viewBox="0 0 509.41461 140.89774" xmlns="http://www.w3.org/2000/svg" preserveAspectRatio="xMidYMid meet">
<g transform="translate(146.31457,-78.052106)">
<path
       id="path8"
       d="m 207.15816,175.88372 c 11.11954,-15.13065 12.44952,-29.06536 9.05579,-47.47684 -1.70037,1.05834 -4.37795,1.64042 -5.76085,2.83634 -3.3161,2.8575 -18.923,22.31318 -21.79815,26.74408 -4.32858,6.6675 -7.54589,13.50081 -4.4732,21.5124 5.36575,13.97703 17.3637,4.0146 22.97641,-3.61598 z M 15.183563,160.86949 c 8.784167,-7.79286 24.535686,-34.30059 27.20975,-45.91754 1.467538,-6.36765 3.393704,-19.653252 -1.199462,-24.736797 -2.7305,-3.019769 -13.634852,-5.062353 -17.250833,-4.229788 -6.096,1.404038 -21.9004356,12.047352 -25.2094999,17.529515 -7.6094166,12.61886 -4.0110833,47.82961 5.0482499,59.74292 4.3920833,5.77498 7.672917,0.92075 11.401795,-2.38831 z m 11.3665,0.29987 c -1.9685,2.54 -12.012083,8.95702 -11.786314,10.88671 9.775481,8.60779 23.237481,12.79173 35.196647,5.7644 3.707686,-2.18017 25.100121,-21.3995 27.869435,-24.92727 4.631981,-5.88788 7.785815,-12.73175 13.077481,-18.923 20.252958,-23.70667 40.364838,-48.044816 73.427168,-53.145983 27.68952,-4.275667 46.47845,8.777102 58.7022,32.836563 17.272,-12.36488 47.75907,-16.478249 67.38057,-8.44198 11.0137,4.5085 20.55987,14.14285 30.6846,19.70265 6.31473,3.46779 13.45141,5.16112 19.87902,8.38904 l -0.0917,-11.13013 c 1.11125,-1.56987 5.62327,-1.58046 7.28837,-0.98779 1.6369,0.58208 14.16757,27.1639 14.9225,31.18556 -0.30337,9.57792 -21.336,7.19315 -28.21162,11.50057 -17.0674,-4.953 -3.30906,-15.33173 7.91985,-15.82209 2.62115,-2.54706 -20.39056,-11.32771 -21.7311,-12.05089 -16.40065,-8.87236 -30.49058,-25.10367 -50.09446,-25.84802 -8.78417,-0.33163 -42.38625,3.99695 -44.72868,14.19225 -0.60677,2.63525 2.14841,13.95587 2.26131,18.18568 0.17637,6.42761 -0.5433,17.18382 -2.7305,23.07873 -2.5259,6.80861 -15.32821,25.40704 -21.48417,28.89954 -1.61221,0.91723 -7.74348,2.75521 -9.58146,2.74815 -5.51037,-0.0177 -13.38789,-3.92642 -16.63345,-8.32202 -4.60023,-6.23358 -5.72911,-12.92931 -4.8754,-20.59871 1.48521,-13.31735 25.60815,-39.11246 36.46665,-47.14521 4.36033,-3.22791 6.28295,-1.09008 1.60512,-9.35214 -12.25902,-21.657022 -38.25521,-27.29442 -60.66719,-17.709439 -4.15218,1.778 -24.31695,14.513269 -27.3685,17.490709 -3.75708,3.66537 -6.73452,10.67858 -10.27641,14.91191 -9.16517,10.94317 -17.847022,22.2109 -27.047458,33.17171 -4.466166,5.31636 -24.92023,24.511 -30.448249,27.63309 -16.4465,9.29216 -35.933962,2.53645 -48.7679996,-9.54617 -5.517462,4.04635 -11.6522499,8.51252 -17.8329164,11.44762 -14.19225,6.73807 -37.108712,15.26823 -52.214647,20.2918 -23.791333,7.90575 -56.388,13.3491 -80.8214,5.82083 -1.05478,-0.32456 -2.14135,-0.93488 -2.15193,-2.14138 7.17198,0.0494 14.37216,-0.0811 21.55473,-0.0705 38.075286,0.067 75.519119,-13.51139 109.943183,-30.04963 1.887352,-0.90662 14.1816661,-7.39775 14.64026839,-8.09976 C 1.6968614,172.11961 -2.0214075,171.34351 -2.9174719,169.90769 -13.458472,152.9779 -18.474972,127.19336 -12.678824,107.78707 -7.9657218,92.000257 17.176759,75.761905 33.436278,78.319526 c 28.486814,4.473231 19.131147,37.052254 9.934231,54.814624 -3.654769,7.06613 -12.213167,22.09094 -16.820436,28.03525" />
</g>
</svg></div></div>
</div>
</section>
<section>
<h2>Doodles</h2>
<div class="grid grid--doodles"><div class="swatch"><div class="label">doodle-asterisk.svg</div><div class="preview preview--doodle"><svg viewBox="0 0 129.96257 108.19468" xmlns="http://www.w3.org/2000/svg" preserveAspectRatio="xMidYMid meet">
<g transform="translate(-43.656249,-94.456249)">
<path
       id="path19"
       d="m 121.04358,94.90063 0.69991,6.1983 -14.20601,38.0365 c 1.85455,0.41628 2.88854,-0.41627 4.37374,-1.143 14.16261,-6.95325 30.85394,-21.88633 45.36616,-29.60864 5.51533,-3.18558 11.69388,1.38995 9.98855,7.43656 -2.21368,7.84931 -47.1865,29.77797 -44.98022,31.9158 7.98089,1.85209 15.63476,3.31259 23.94796,2.45887 7.08731,-0.73025 13.74422,-5.46453 20.80119,-4.84717 4.41643,0.38805 8.79722,6.25475 5.33682,9.48619 -3.30905,3.08681 -26.70986,6.75217 -32.3342,6.49111 -10.47256,-0.4833 -17.97367,-3.84175 -27.57875,-6.18772 l 2.00554,1.44992 13.78797,38.79145 c 1.1945,2.56469 -5.17702,6.63927 -7.06508,7.07319 -11.45434,2.63525 -14.73518,-21.66409 -16.73401,-28.29631 -0.48049,-1.59808 -1.99179,-2.68816 -2.50508,-4.24744 -0.75636,-2.29659 1.81116,-5.30931 -2.417939,-7.39775 l -6.735585,11.66636 c -3.494972,4.94594 -5.49275,20.89149 -10.220325,23.05755 -1.660173,0.762 -2.267657,0.78317 -3.358446,-0.85018 -3.993089,-5.97254 3.169356,-21.11729 4.958998,-27.74245 -7.126111,3.19616 -27.074283,24.53922 -34.357733,21.54413 -2.335035,-0.95955 -5.249685,-5.2705 -2.573512,-7.4683 l 35.708163,-28.21517 c -4.174418,-0.59972 -39.39963,-4.68841 -39.29521,-8.59719 0.123122,-4.62492 20.235334,-0.72672 23.889055,-0.56092 5.110337,0.22578 10.305343,-0.25753 15.412153,-0.0635 -7.109883,-8.72419 -14.52245,-18.97944 -19.345978,-29.1853 -3.729921,-7.89164 -7.866592,-19.773196 5.941835,-14.53797 5.705123,8.81591 10.321925,19.04999 17.127712,27.10744 1.432631,1.69686 9.39165,10.41047 11.006666,9.24983 4.277076,-10.22703 7.888816,-22.19325 12.869686,-32.00047 1.137,-2.24014 7.23653,-13.853583 10.48597,-11.01372" />
</g>
</svg>