<svg viewBox="0 0 158.50223 231.98227" xmlns="http://www.w3.org/2000/svg" preserveAspectRatio="xMidYMid meet">
<g fill="black"><g transform="translate(-29.368741,-32.54374)"><path id="path29" d="m 29.368741,208.87912 c 7.52475,-1.27355 13.793603,-7.10848 14.742584,-14.732 -8.279712,-3.34082 -14.502712,7.39068 -14.742584,14.732 z m 83.460139,32.4767 c -2.71992,3.58775 -1.651,19.97075 2.81165,22.56015 3.44665,1.9967 8.66068,-1.21357 9.017,-5.20348 0.46918,-5.21759 -5.73265,-25.39646 -11.82865,-17.35667 z M 163.75943,77.829221 c -2.69524,2.776352 -6.9215,8.900583 -0.7973,10.452814 4.3674,1.107705 25.1813,-14.982481 24.90613,-20.122462 -0.40923,-7.722288 -22.0839,7.584731 -24.10883,9.669648 z M 152.2518,100.74214 c 1.29471,1.24177 -3.29494,5.18231 -4.27212,6.19831 -10.0189,10.38577 -22.0839,19.53683 -32.49084,29.54867 l 1.09712,2.98802 28.28925,28.25398 c 0.37397,1.68275 -0.0882,2.32479 -1.8062,1.80975 -5.07648,-1.51696 -16.70757,-6.6393 -21.4348,-9.29571 -2.48353,-1.397 -3.5701,-5.1435 -7.47183,-4.19452 l 7.44008,44.88743 c -0.33512,3.2738 -2.33185,23.99242 -4.36737,23.89717 -13.41614,-19.71675 -16.62641,-45.42367 -19.057061,-68.78812 -2.130769,-0.5574 -2.455334,0.88193 -3.686519,1.82737 -7.803462,5.98313 -25.325917,27.42496 -33.094083,29.60513 -2.2225,0.62441 -2.314231,0.46918 -3.753565,-1.34409 l 39.123064,-43.17648 c 0.754936,-3.87702 -11.846295,-13.1445 -15.010712,-16.52058 -1.4605,-1.55575 -1.760352,-3.8735 -3.203204,-5.45394 -2.384796,-2.61762 -18.728981,-13.47964 -8.971148,-16.35125 7.394231,-2.18016 18.093981,10.14942 23.579667,14.34746 0.532685,0.40923 -0.585603,2.94217 1.986147,0.19756 L 94.928945,38.857869 c 1.121834,-5.965481 7.246065,-8.420814 11.574645,-4.198064 3.79587,3.700647 3.43604,81.812685 5.21404,93.112165 11.6558,-11.6346 25.15306,-20.91619 40.53417,-27.02983"  /></g></g>
</svg>