<svg viewBox="0 0 115.86657 204.55893" xmlns="http://www.w3.org/2000/svg" preserveAspectRatio="xMidYMid meet" aria-hidden="true" data-w="18" data-h="32"><g fill="DOODLE_COLOUR"><g transform="translate(-180.975,61.912504)"><path id="path12" d="m 200.47506,81.759768 c -5.90902,-3.552473 -4.35682,-13.578416 -6.01134,-19.593276 -1.70391,-11.740444 -3.29848,-23.495 -4.89302,-35.249554 -3.09739,-26.22549926 -9.51796,-53.237692 -8.48431,-79.332665 3.1609,8.15975 6.76275,16.217196 9.0946,24.701499 0.0741,-6.87211 -2.08137,-14.329833 0.6209,-20.85622 1.2206,-3.093863 5.60917,-3.96875 7.9022,-1.54164 1.75684,1.813277 1.53813,4.572 2.13784,6.879167 3.60891,31.27375 7.38013,62.706247 8.6995,94.16344 0.11996,7.863416 -0.83609,15.772696 -0.85725,23.54086 0.57504,3.019779 -0.87487,-0.29986 -1.45696,-1.552221 0.50094,4.68136 -0.58915,10.798527 -6.75216,8.84061"  /> <path id="path13" d="m 205.95368,142.64215 c -4.08869,-0.35983 -4.99534,-5.66913 -3.49954,-8.79475 -1.23825,-0.0388 -0.56798,-0.22577 0.20108,-0.5468 0.0776,-1.44639 0.53621,-2.88925 1.2841,-4.12045 0.23636,-0.38452 0.52917,-0.73377 0.86077,-1.03011 0.74438,-3.67241 5.82084,-5.67972 7.95163,-2.01436 1.28762,3.19264 1.01952,7.05909 0.58209,10.40342 -0.7973,3.19969 -3.94759,6.23711 -7.38013,6.10305"  /> <path id="path14" d="m 240.60706,71.426908 c -5.04122,-2.303639 -5.06942,-27.329693 -6.48055,-33.908999 -2.20485,-20.185944 -4.19804,-40.40011 -5.71145,-60.65308 -0.3528,-6.783917 -0.79024,-36.110333 4.98826,-38.777333 -2.62818,2.737556 2.65642,19.459223 2.87867,24.27111 0.0917,-1.47461 0.25048,-2.938637 0.37748,-4.409721 0.47271,-5.069416 8.34319,-5.626806 9.48619,-0.631473 2.81868,17.617721 2.159,35.7187499 2.8081,53.534027 0.15875,12.04736 0.13406,24.09472 0.0388,36.14208 -0.0564,6.981473 -0.0847,13.984113 -1.12889,20.902083 -0.35629,3.31964 -4.41677,5.305777 -7.25662,3.531306"  /> <path id="path15" d="m 252.32281,133.62868 c -1.18534,-0.16228 -2.30013,-0.87841 -2.99157,-1.84503 -0.62793,-0.87136 -0.89958,-1.91205 -1.02658,-2.96333 -1.69685,-1.13947 -1.93675,-3.62303 -0.78669,-5.23875 -0.63854,-1.08655 3.74296,-11.4935 4.10279,-7.60236 -0.067,-0.13405 -0.14817,-0.27164 -0.23987,-0.39158 -0.26458,1.62278 -0.014,3.2773 0.0529,4.91419 0.78668,-0.25753 1.67216,-0.24341 2.41651,0.0741 1.18534,0.49741 1.93324,1.62983 2.02849,2.83986 4.064,2.70227 1.37935,10.78794 -3.556,10.21291"  /> <path id="path16" d="m 280.18518,55.368465 c -6.64634,-3.100917 -4.75896,-13.0175 -5.969,-19.092333 -0.58913,-6.695723 -1.19592,-13.394973 -1.74625,-20.094223 -1.69686,-25.5516932 -5.63738,-52.930774 0.0776,-77.67108 -0.0246,0.0141 -0.0494,0.02822 -0.0776,0.04233 3.18912,14.442723 6.81214,29.012443 7.26371,43.934943 0.85725,-10.36814 1.43227,-20.464637 4.31093,-30.420027 1.31586,-3.961693 6.60048,-6.067777 10.0965,-3.612443 3.76415,4.18747 2.45182,10.91847 2.57882,16.164276 -0.45509,17.466027 -1.18534,34.93911009 -2.88221,52.33458 -1.7145,8.152696 -1.61571,40.87989 -13.6525,38.413973"  /> <path id="path17" d="m 288.11564,128.15004 c -0.99838,-0.62089 -1.86267,-1.36172 -2.5259,-2.34244 -0.66675,-0.98425 -0.98425,-2.10961 -1.04423,-3.28083 -5.72558,-9.4615 11.74398,-17.3602 8.83708,-2.45534 0.254,1.07598 0.50096,1.23473 -0.49741,0.35631 -0.67734,1.47108 -1.86971,2.69169 -3.37609,3.33375 -0.6632,0.28222 -1.38993,0.35278 -2.0955,0.254 -0.2822,1.41111 0.15875,2.8575 0.70205,4.13455"  /></g></g></svg>