<svg xmlns="http://www.w3.org/2000/svg" viewBox="4425.29 2514.57 2210.73 1205.59" width="2210.73" height="1205.59">
<g fill="#FF0061" fill-rule="nonzero" stroke="none">
<path
       id="path12"
       d="m 5834.6932,2985.9201 c 125.76,-63.5334 260.9866,-159.7334 303.8933,-300.2667 4.6933,-26.4667 7.0533,-56.4533 -6.7333,-80.6267 -20.9334,-36.7066 -70.88,-42.8666 -103.9734,-19.0533 -58.7466,42.0667 -78.6266,115.76 -95.9066,182.2133 -2.5333,20.1867 -23,40.3867 -40.16,20.36 -7.1733,-13.5733 -4.16,-30.3333 -7.6533,-45.0933 -14.16,-66.4933 -43.6934,-135.2933 -100.2134,-176.24 -27.6533,-18.76 -65.0666,-31.4933 -97.2666,-17.24 -48.4667,24.12 -53.08,86.72 -49.2134,134.6533 16.1734,122.8667 102.0267,227.2267 197.2267,301.2934 z m 529.6266,17.9066 c 35.68,-27.9733 76.8134,-75.0533 56.8667,-123.1466 -17.8133,-37.1067 -66.5067,-51.3867 -104.4533,-40.9734 -39.44,10.0534 -52.2267,56.64 -33.9867,90.28 17.0533,33.5067 48.72,57.0667 81.5733,73.84 z m -1205.8399,420.04 c 49.1866,-20.1866 107.2933,-128.7333 134.92,-175.64 -48.6934,31.6534 -95.76,69.2934 -126.4267,119.3867 -5.9733,11.6133 -24.0133,49.0533 -8.4933,56.2533 z m -97.5067,276.2933 c -168.04,-67.3733 -412.88,-247.6666 -522.76,-391.9733 -60.9466,-84.16 -105.8933,-188.0933 -92.92,-293.8 10.84,-100.24 98.64,-187.7866 201.56,-185.9866 57.3333,-1.8667 113.5333,25.4133 157.8667,59.04 70.2266,48.2133 119.3733,118.5866 159.7866,192.32 -4.52,-101.4534 6.3467,-207.56 63.4267,-294.3334 54.9333,-87.4133 173.5467,-151.28 273.1067,-101.4133 95.36,46.56 132.12,161.0933 131.1866,260.3733 1.8,74.7467 -24.6666,146.2934 -55.92,213.0667 131.9734,-64.2667 275.04,-98.92 411.6,-151.1733 -92.88,-80.6134 -175.2133,-188.5067 -188.56,-314.1334 -4.3333,-55.4666 3.76,-119.3733 48.4,-157.5733 58.8134,-50.4267 144.4134,-13.6533 189.16,38.2667 35.08,38.6666 55.2667,87.7466 71.64,136.68 26.0534,-63.6134 63.12,-135.9734 132.6267,-159.04 59.1866,-20.9734 127.6133,22.96 134.5333,85.1333 22.1333,165.36 -163.5333,311.4667 -294.52,380.2533 125.3467,69.44 322.2267,82.1334 449,10.8134 -41.1333,-23.0267 -79.1733,-59.5467 -88.9733,-107.2134 -12.72,-50.88 23.48,-104.4 75.1466,-112.5066 143.2667,-18.1334 197.44,116.08 96.12,214.0666 67.48,16.5334 135.2134,-6.08 197.24,-31.8533 7.0534,-2.8533 12.5734,7.2933 6.3067,11.72 -66.7467,47.2533 -155.0533,72.9333 -234.9733,47.0267 -145.96,108.6266 -401.6133,90.64 -548.4933,-8.8134 -79.8667,34.6534 -162.4534,56.4134 -243.64,82.6534 -82.72,26.8266 -164.48,57.84 -242.6,96.12 -26.2667,49.2133 -56.8134,99.08 -88.9067,143.1333 -22.1333,29.5467 -43.88,61.4533 -75.3333,81.8133 -19.0134,13.4934 -48.76,7.5067 -53.8,-17.3466 -7.04,-27.9867 3.3466,-57.2934 16.9466,-81.68 43.4,-70.2 111.0534,-121.92 182.2667,-161.7334 38.7467,-81.3066 75.2,-169.4933 63.16,-261.3733 -6.68,-116.0667 -94.7067,-248.9733 -224.5067,-193.88 -110.72,47.0667 -156.7866,174.4 -166.56,286.0667 -2.1733,21.7333 -3.7466,43.5066 -5.2666,65.2933 -2.7334,15.68 1.32,38.5467 -14.0134,48.0933 -6.2533,2.72 -12.8666,0.1467 -16.8666,-5.08 -43.96,-68.8666 -88.6134,-139.56 -156.1734,-187.9333 -45.2666,-32.12 -97.04,-61.96 -154.3066,-60.0667 -105.4667,1.3467 -173.3733,101.72 -159.6933,201.68 9.9066,102.4534 67.1333,194.7067 136.52,268.2934 103.3466,107.32 224.6933,195.8933 349.0799,277.2133 17.6267,11.5066 35.24,23.0933 53.0667,34.32 15.4,11.2533 35.3333,18.8133 46.7733,34.2933 3.7067,10.5067 -9.6266,15.2 -17.7333,11.1733" />
</g>
</svg>