<svg xmlns="http://www.w3.org/2000/svg" viewBox="49.23 2396.21 835.16 881.92" width="835.16" height="881.92">
<g fill="#FF0061" fill-rule="nonzero" stroke="none">
<path
       id="path17"
       d="m 410.21732,3150.7601 c 54.72934,-6.0534 122.66667,-66.84 164.56,-102.28 -35.52267,2.88 -70.86933,12.2666 -103.04933,27.5866 -18.808,9.9334 -36.85067,21.3067 -52.90267,35.3067 -11.34933,10.08 -44.85066,42.0667 -8.608,39.3867 z m 277.91333,107.3733 c -37.49867,-7.5333 -70.368,-46.04 -59.716,-85.2133 6.48,-26.3467 36.636,-41.68 62.344,-36.9867 9.816,0.88 23.976,10.8667 15.15733,21.2 -6.36933,5.52 -15.73333,4.8 -22.92533,8.9467 -15.608,7.1333 -18.544,20.9333 -7.47467,33.9466 16.64934,19.48 51.62134,20.7467 68.38267,0.7734 28.72133,-36.7067 19.084,-81.5467 -14.97467,-110.8267 -27.58,-23.3067 -62.93866,-35.5467 -98.41866,-40 -49.46533,45.5067 -100.32133,88 -159.39333,120.0933 -27.30933,13.5334 -62.40267,26.4 -91.59067,11.7067 -17.692,-8.6267 -24.46666,-30.1867 -18.57866,-48.3467 4.06133,-13.3866 13.91866,-23.9466 23.928,-33.2933 60.35066,-56.0533 143.23599,-86.7867 225.48132,-84.6933 93.864,-92.1734 165.89467,-205.4534 200.76933,-332.48 22.188,-76.7067 33.06134,-186.8667 -69.076,-204.3067 -73.24533,-11.1067 -141.40799,34.76 -184.27199,90.76 -43.55467,56.9867 -68.81467,125.56 -85.66533,194.7067 -2.65067,10.52 -5.34,21.0266 -8.00933,31.56 -2.91067,10.1466 -4.56134,20.7466 -7.56534,30.7866 -4.36133,11.3334 -20.66266,13.5867 -27.97866,3.8534 -7.188,-9.4534 -2.144,-21.9734 -0.58134,-32.4934 1.144,-34.84 -1.86,-69.6666 -6.688,-104.16 -8.452,-62.04 -28.136,-125.1333 -71.65333,-171.7466 -27.40533,-30.3467 -62.63333,-55.1067 -103.456,-62.3067 -40.38133,-6.96 -87.22266,6.96 -108.85333,43.6 -17.0492,28.7467 -22.1648,62.7867 -24.55866,95.64 -1.4828,23.6933 0.6912,47.32 4.4412,70.72 5,31.4533 12.436,62.5867 23.3628,92.5333 16.724,47.88 37.448,94.3467 62.93866,138.2267 32.236,55.8133 70.58,107.7867 104.756,162.3467 8.47333,10.7866 -6.83467,25.0133 -16.91333,15.0666 -63.284,-61.8933 -115.91733,-133.4 -155.75333,-212.3066 -40.768936,-82.8 -70.492402,-174.6267 -66.368402,-267.8267 2.629734,-40.0533 9.928133,-81.24 30.828132,-116.0667 28.10987,-48.0133 86.4456,-71.5333 140.59493,-65.3333 44.248,4.5733 84.92267,26.9733 117.04666,57.0667 64.33067,60.2933 89.13867,137.44 96.91734,223.0933 35.81333,-111.6933 111.43333,-229.7867 234.80932,-252.3867 78.08933,-14.1066 154.976,19.3067 174.96533,100.44 13.68133,57.9067 0.009,117.52 -17.45733,173.0667 -36.76533,114.1867 -103.104,217.7733 -186.78,303.2667 63.25867,11.56 131.36,53.4533 140.332,122.0933 9.376,66.4533 -41.69733,132.2133 -112.35333,115.28" />
</g>
</svg>