<svg xmlns="http://www.w3.org/2000/svg" viewBox="6.42 1274.33 956.34 921.65" width="956.34" height="921.65">
<g fill="#FF0061" fill-rule="nonzero" stroke="none">
<path
       id="path7"
       d="m 257.16666,1882.3868 c 66.10667,49.44 134.06133,96.6533 197.28133,149.7866 31.512,26.8934 60.436,57.1734 81.95466,92.76 23.68,-130.24 104.22533,-243.3733 185.24,-344.92 43.628,-54.8933 91.31466,-107.08 127.39733,-167.48 40.28,-67.36 69.29866,-154.68 31.132,-229.16 -21.996,-46.8266 -71.18533,-60.3333 -119.28133,-60.68 -62.86133,-0.9066 -123.02933,26.8667 -169.956,67.4934 -44.93466,38.6133 -76.62533,90.4133 -96.42666,145.8933 -5.368,21.2267 -10.34134,42.5733 -15.23867,63.92 -2.98533,10.88 -4.648,23.24 -12.47867,31.8667 -4.77466,4.68 -11.58266,6.72 -17.97066,4.12 -7.29867,-2.96 -10.184,-10.76 -13.424,-17.3334 -19.288,-37.2133 -43.94133,-71.44 -71.50133,-102.96 -38.17733,-43.2266 -86.48267,-80.2666 -143.89467,-92.3333 -72.72933,-15.4933 -144.179725,8.8267 -170.183858,83.24 -15.779733,48.2533 -9.065066,101.28 6.3536,148.7867 30.845866,91.4 126.450268,169.1066 200.996928,227 z m 274.44399,293.6 c -6.16666,-5.2934 -9.85466,-12.8934 -14.87066,-19.2134 -11.82134,-17.1066 -23.88134,-34.08 -37.86267,-49.52 -29.24133,-32.6533 -64.372,-59.3466 -99.35466,-85.4933 -116.57067,-89.4267 -250.15706,-166.0533 -332.135195,-291.6667 -46.3067357,-76.4666 -68.308264,-188.4 -20.968666,-268.9466 23.477066,-39.04 63.383332,-67.2134 108.185201,-75.8 102.00399,-20.4267 193.17466,36.3333 257.93999,110.7733 24.57467,26.96 46.008,56.7733 59.648,90.8 15.62666,-107.1733 54.44933,-191.8133 144.97066,-255.8667 71.99333,-51.1466 170.30666,-71.5066 253.48,-36.72 64.86133,27.2134 94.13999,102.2 92.11599,168.8534 -3.67333,110.1466 -72.54933,204.4 -141.92266,284.8533 -73.42266,86.32 -153.71866,169.64 -204.35866,272.16 -19.18133,39.4267 -33.34533,81.8133 -38.45333,125.4533 -0.47734,7.24 0.19066,14.5867 -1.1,21.7467 -2.10934,11.1067 -16.716,15.9867 -25.31334,8.5867" />
</g>
</svg>