<svg xmlns="http://www.w3.org/2000/svg" viewBox="4477.80 523.51 2047.49 1128.81" width="2047.49" height="1128.81">
<g fill="#FF0061" fill-rule="nonzero" stroke="none">
<path
       id="path10"
       d="m 6002.4532,1262.3734 c 145.8266,-123.28 277.08,-277.69329 330.2,-464.31995 15.1866,-61.82666 43.92,-161.10666 -12,-209.11999 -41.7067,-27.85334 -93.2267,-2.97334 -128.6934,23.97333 -81.8533,61.14666 -112.3066,166.10666 -133.84,260.93333 -0.027,-0.0133 -0.04,-0.0133 -0.053,-0.0267 -1.52,13.65333 -18.84,20.69333 -29.52,11.92 -8.5333,-6.38667 -7.68,-16.94667 -6.48,-26.52 -1.6133,-19.01333 -5.5067,-33.45333 -9.6533,-51.2 -17.24,-65.65333 -49.7067,-127.97333 -97.1467,-176.85333 -145.1733,-150.75999 -316.8133,-93.16 -292.2666,125.68 34.08,202.26666 207.96,400.98671 379.4533,505.53331 z m -950.1467,117.1734 c 138.3067,-100.08 279.3334,-268.6267 323.56,-435.62669 13.6267,-61.26666 13.3467,-138.62666 -42.4666,-179.06666 -63.6934,-45.74666 -149.56,-4.53333 -189.4267,53.98667 -37.6133,49.06666 -65.16,105.73333 -77.08,166.57333 -5.64,28.65335 -9.3067,57.69335 -11.88,86.77335 3.2533,22.0133 -20.96,38.2266 -35.2,17.6133 0,0 -0.013,0.013 -0.027,0.013 -15.6533,-76.12 -52.04,-153.34662 -117.5466,-199.01328 -39.5734,-26.65334 -94.9867,-51.18667 -139.28,-21.53334 -44.9067,32.21334 -36.7067,97.81333 -26.08,145.24002 39.84,144.2266 191.3066,287.2133 315.4266,365.04 z m -554.5066,247.9466 c -6.6667,-18.16 29.5467,-17.7733 40.64,-23.0133 39.8533,-10.84 79.5067,-22.3867 118.7067,-35.4 124.9066,-42.8133 247.9333,-94.7467 359.8933,-165.2667 -130.7734,-86.5733 -292.84,-246.6133 -320.7334,-406.03995 -6.7466,-46.8 -6.4133,-101.57333 25.7734,-139.41333 62.0266,-70.41333 165.7866,-28.57334 223.7333,26.01333 36.4533,32.32 61.8933,74.81333 81.5067,118.98665 18.84,-97.46665 88.5466,-232.02665 184.04,-271.81331 122.2533,-48.38667 220.8,46.50666 212.2933,170.13333 -9.6667,186.59998 -183.7333,395.42668 -329.08,502.90668 118.1333,61.5466 251.8533,104.7866 386.3333,95.8533 179.72,-10.7733 342.8267,-104.0933 484.88,-208.72 -174.6266,-110.7067 -329.36,-295.54665 -376.4533,-499.65331 -17.0267,-86.41334 -3.5733,-191.68 70.3333,-248.56 57.28,-41.68 136.4934,-28.66666 195.0934,3.70667 90.6933,49.34666 156.7066,138.33333 186.5866,236.34666 25.64,-86.2 70.0933,-172.37333 149.88,-219.46666 54,-37.88 141.2933,-43.73333 180.3333,17.88 42.7334,70.48 19.6,159.17333 -0.093,233.69332 -55.0667,187.34662 -184.8533,343.50662 -329.5467,470.37332 129.5867,76.8667 273.5334,116.72 421.5467,135.52 11.2933,1.7733 22.5333,4.1733 33.9467,4.9867 4.48,0.32 7.88,4.7866 7.88,9.0666 -0.027,4.88 -4.1867,9.2534 -9.16,9.12 -171.1067,0.6934 -342.7467,-41.6666 -490.3734,-129.0533 -152.7866,117.16 -332.3866,218.0667 -528.6933,226.88 -146.32,6.72 -291.88,-41.9067 -418.44,-112.68 -116.84,75.64 -247.6133,128.6933 -380.8,167.9333 -53.8266,15.4134 -108.6266,27.72 -164.2266,34.5067 -5.2667,3.64 -13.3333,1.12 -15.8,-4.8267" />
</g>
</svg>