<svg xmlns="http://www.w3.org/2000/svg" viewBox="4071.43 125.60 1192.59 505.45" width="1192.59" height="505.45">
<g fill="#FF0061" fill-rule="nonzero" stroke="none">
<path
       id="path5"
       d="m 4581.5332,340.16013 c 11.5067,-12.81333 7.6534,-37.02667 5.7734,-52.93333 -3.4,12.94666 -5.7467,26.18666 -6.7867,39.53333 -0.1467,4.46667 -0.5333,9.13333 1.0133,13.4 z m -36.3066,124.45333 c 43.28,-27.66667 82.1333,-61.8 116.2933,-100.12 15.9733,-17.93333 29.28,-37.96 40.2,-59.32 11.72,-23.6 22.3066,-49.10666 21.92,-75.90666 -1.28,-12.14667 -4.2,-25.54667 -13.6134,-34.05333 -12.76,-11.52 -27.2933,-14.45334 -43.4399,-8.46667 -29.5067,10.72 -50.5334,37.2 -65.2667,63.92 10.9333,28.37333 15.7067,61.64 3.9067,90.46666 -7.6134,19.44 -33.4534,29.86667 -43.1067,6.04 -8.1733,-24.70666 4.8133,-70.04 14.7067,-93.86666 -18.1867,-40.24 -49.9067,-76.93333 -92.2267,-92.24 -28,-9.64 -61.1333,-12.53333 -86.8933,4.53333 -40.7734,27.4 -32.0934,82.85334 -19.0934,123.26667 27.5734,78.33333 95.24,137.10666 166.6134,175.74666 z m -390.3867,146.44 c -15.1467,-1.65334 -57.6667,-3.85334 -63.4133,-19.61334 -1.2,-3.94666 1.9733,-8.50666 6.16,-8.77333 30.1333,0.88 60.3333,-0.21333 90.4266,-2.24 33.36,-2.4 66.6134,-6.66667 99.3734,-13.44 76.3733,-16.65333 150.7866,-42.90666 219.7066,-79.90666 -81.0933,-47.10667 -155.4266,-121.21333 -172.9866,-216.44 -9.5067,-43.65333 -4.64,-94.76 31.6933,-125.04 48.28,-41.86666 122.6667,-24.55999 168.8,12.28 23.28,18.82667 41.8667,43.14667 56.24,69.30667 21.28,-32.02667 52.4667,-64.08 92.6266,-68.05333 16.2,-1.18667 31.7734,5.22666 44.84,14.42666 18.68,13.74667 28.16,37.50667 30.6134,59.98667 3.5466,44.01333 -13.92,87.24 -35.8,124.56 -32.7867,51.46666 -78.64,93.97333 -127.9733,129.41333 41.9466,16.22666 85.3599,28.58666 129.3999,37.6 57.6934,11.71999 116.6,20.62666 175.5867,16.03999 81.3867,-6.58666 160.7467,-36.73333 232.2933,-74.25333 34.6667,-18.82666 71.2267,-35.88 103.92,-57.86666 6.4534,-4.72 14.2667,4.62666 7.6667,9.94666 -17.6533,11.52 -33.6267,22.90667 -50.5067,35.06667 -43.9866,31.88 -90.88,60.26667 -142,79.16 -65.1866,25.82666 -134.6133,41.92 -205.0133,40.76 -98.9867,-3.49334 -198.2533,-22.93334 -289.6533,-61.56 -119.8667,68.76 -263.3067,109.69333 -402,98.64" />
</g>
</svg>