<svg xmlns="http://www.w3.org/2000/svg" viewBox="4778.01 1687.44 1773.11 795.36" width="1773.11" height="795.36">
<g fill="#FF0061" fill-rule="nonzero" stroke="none">
<path
       id="path11"
       d="m 6096.6132,2035.2934 c 18.52,0.32 37.0666,-1.7866 55.0533,-6.1866 31.08,-58.8134 55.7467,-151.04 -7.6,-197.28 -40.1867,-24.88 -97.12,-23.8934 -134.32,6.2666 -93.3733,80.76 -25.4533,196.6 86.8667,197.2 z m -747.3867,223.8667 c 115.7734,-71.6 224.7467,-171.08 233.08,-315.68 2.64,-50.24 -22.8666,-114.6267 -72.9866,-132.7467 -88.9867,-19.2266 -142.6534,98.8667 -161.7734,168.84 -3.8266,13.2267 -6.7733,26.6267 -8.9466,40.2134 -2.3334,10.8933 -16.6667,15.84 -25.1734,8.5733 -10.2933,-9.3067 -14.52,-23.3467 -20.8133,-35.3467 -32.4933,-67.0666 -84.4133,-133.2533 -161.0533,-149.0266 -44.4267,-11.4667 -91.3734,11.4133 -111.08,52.6 -27.2134,60.7733 -7.04,134.6933 32.76,185.28 72.6,93.3866 185.6,143.3333 295.9866,177.2933 z m -520.52,203.64 c -10.1466,-1.2667 -21.64,-0.013 -30.6933,-5.44 -5.4933,-3.1334 -4.72,-12.2267 1.4267,-14.16 18.6266,-6.4667 38.92,-7.3734 58.3466,-10.2934 54.4667,-7.4533 108.44,-18.6666 161.5467,-32.8266 99.5467,-27.1067 193.3067,-62.44 282.68,-113.04 -126.8933,-44.7467 -263.44,-116.5467 -318.3067,-246.6 -19.96,-54.0533 -24.5733,-118.3467 4.7467,-169.88 28.5333,-51.4533 89.9467,-80.6533 147.6933,-67.2 83.1334,15.3067 146.9734,81.88 179.6267,157.2533 19.3067,-102.3333 133.0667,-246.3466 242.4,-160.6 87.56,79.72 64.5733,209.5867 13.7867,303.4934 -37.7067,70.92 -98.88,125.7199 -163.2267,172.2133 84,19.88 170.0933,38.5866 256.88,35.5066 177.2933,-10.0133 355.4533,-89.7066 458.88,-237.8133 -154.6267,23.1734 -269.9333,-137.7066 -145.4933,-255.8266 45.5333,-40.9334 115.9733,-45.6267 170.3866,-20.5867 80.7733,38.9867 80,144.8933 49.9333,217.4933 130.4,-55.48 226.32,-165.6266 304.6534,-280.2533 7.0133,-6.7067 13.2533,-32.8133 24.6666,-26.8 3.4,2.04 4.4134,6.44 2.48,9.84 -21.8933,39.24 -40.5733,78.92 -67.96,114.6533 -31.7066,44.76 -71.88,82.5734 -112.68,118.92 -52.16,44.5334 -107.48,88.9067 -173.5866,110.3467 -103,182.0266 -306.7467,282.1866 -511.2933,292.0933 -102.56,2.3067 -204.0267,-21.16 -302.6267,-47.1867 -155.9867,93.7467 -350.8667,161.1734 -534.2667,156.6934" />
</g>
</svg>