<svg xmlns="http://www.w3.org/2000/svg" viewBox="40.76 -19.89 2070.64 1109.92" width="2070.64" height="1109.92">
<g fill="#FF0061" fill-rule="nonzero" stroke="none">
<path
       id="path2"
       d="m 1250.6346,510.21346 c 31.8107,-20.29333 20.6294,-68.66667 -3.1413,-91.4 -8.5827,25.85333 -10.4,53.64 -2.9227,80 1.5747,3.44 2.3854,12.46667 7.4814,10.81333 -0.48,0.2 -0.9347,0.38667 -1.4174,0.58667 z m -656.92395,-46.96 c 44.99733,-37.02667 -24.62533,-166.37333 -51.828,-205.06666 -4.17866,57.4 0.62267,168.29333 50.28267,204.87999 0.003,0 -0.12,-0.28 -0.12,-0.28 0.54267,0.2 1.09067,0.37334 1.66533,0.46667 z M 1344.92,678.41345 c 76.6666,-84.63999 152.1066,-217.19999 119.0666,-334.22665 -15.7733,-42.28 -65.3733,-67.26667 -108.8133,-55.69334 -48.5547,14.6 -78.4493,60.50667 -97.9427,104.61334 28.2254,25.85333 42.724,68.17333 28.468,104.83999 -5.5586,15.94667 -15.9173,33.45333 -33.9533,36.38667 -32.6947,2.45333 -41.4813,-39.86667 -44.728,-65.06667 -1.844,-24.06666 3.524,-48.25333 11.7613,-70.76 -86.7213,-42.13333 -142.4506,64.26667 -98.3546,134.69333 49.364,78.44 138.1506,120.65334 224.496,145.21333 z m -679.36135,98.96 C 774.49731,683.26679 863.42131,564.40012 911.45464,427.96013 946.46931,331.69346 967.46398,219.65347 923.47331,122.92014 897.93331,68.240137 841.97465,33.533471 783.23198,25.640138 670.25065,11.106805 572.83465,111.36014 549.05465,215.4268 c 243.65733,322.47999 -86.04799,413.99999 -28.144,14.66667 -75.46533,-97.2 -213.22532,-175.2 -334.94265,-119.46667 -115.802935,63.76 -77.3336,228.25333 -23.53867,322.97333 105.24,183.86666 302.72933,293.14666 503.12932,343.77332 z M 69.050532,1070.0268 c -5.974,0.053 -10.462,-6.48 -8.290134,-12.0667 1.6604,-4.6933 7.214667,-7.2 11.8172,-5.3067 10.985467,-0.04 21.886933,-1.1866 32.787462,-2.4533 32.3736,-3.96 64.4976,-9.7733 96.11093,-17.8133 C 357.14799,989.54678 500.55332,908.93345 626.99465,809.54678 410.72399,748.64012 197.27066,614.81346 106.72453,401.42679 65.808798,302.93346 54.825065,162.01347 152.77733,93.653469 280.53599,16.706805 441.98132,89.773469 531.00665,193.77347 564.65599,95.706803 651.94132,4.8134715 760.15065,0.10680495 847.35465,-2.653195 934.74398,49.546804 965.93998,132.36013 c 85.53862,226.36 -80.9,510.41333 -249.17066,657.74666 195.90399,48.58666 430.04928,59.07999 593.44798,-78.30667 C 929.15598,584.45346 1073.2186,288.40013 1229.824,372.7868 c 24.2586,-52.92 65.9373,-104.58667 125.4426,-117.21333 54.24,-10.86667 114.12,16.94666 138.4667,67.11999 50.92,121.64 -26.1067,273.08 -104.2133,366.90666 227.32,55.12 443.6133,-19.94667 629.5599,-151.66666 21.08,-15.82667 40.5067,-33.68 61.32,-49.82667 3.0534,-2.77333 8,-2.54666 11,0.17334 9.7067,9.38666 -13.08,27.29333 -18.4266,35.38666 -110.0267,107.42667 -259.2133,184.90666 -409.44,216.98666 -101.64,18.97334 -207,9.57334 -306.7867,-15.45333 -179.136,173.74666 -454.29329,159.49333 -678.81062,98.24 C 520.71599,948.36011 275.50666,1089.8934 69.050532,1070.0268" />
</g>
</svg>