<svg xmlns="http://www.w3.org/2000/svg" viewBox="5179.40 3172.51 1611.17 1064.13" width="1611.17" height="1064.13">
<g fill="#000000" fill-rule="nonzero" stroke="#000000" stroke-width="41.9" stroke-linejoin="round" transform="rotate(-30,6024.81,3768.19)">
<path
       id="path13"
       d="m 6036.6932,4013.6534 c 39.7733,-41.9467 72.9733,-90.0134 108.5866,-135.5334 32.7467,-42.7733 67.9467,-83.6 99.6934,-127.16 -8.1734,-28.36 -24.7867,-58.2133 -53.7867,-69.08 -51.3067,-11.6266 -84.2,50.28 -105.32,87.7334 -20.04,41.2533 -35.8533,84.76 -44.5867,129.84 -5.1333,35.2933 -18.0933,80.32 -4.5866,114.2 z m -99.6,175.5328 c -22.5333,-9.1063 -38.0267,-30.9334 -55.7467,-47 -39.8666,-40.8131 -79.5466,-81.8128 -118.0266,-123.9328 -106.0934,-114.9867 -272.7067,-351.5334 -261.6534,-511.9867 6.0534,-103.3066 115.9067,-171.3866 213.1734,-159.08 138.92,17.5067 211.8666,144.4534 252.0666,265.76 10,-103.6 63.6533,-206.0266 152.3733,-262.9466 84.48,-53.1334 220.6134,-69.4934 286.68,19.6933 79.4667,129.5867 -45.9333,290.6133 -122.44,393.08 1.9867,31.32 -1.32,62.6266 -7.6133,93.32 38.04,-43.56 91.4,-75.4134 148.0667,-87.0934 63.0266,-13.32 135.6933,31.84 123.9866,101.7867 -8.9733,52.7733 -52.7733,92.3467 -96.8,118.6667 -74.1866,38.6266 -152,70.48 -229.6666,101.4396 -56.2267,22.2401 -112.5467,44.7333 -171.04,60.227 -4.8134,0.9464 -9.8667,-2.2932 -11.7067,-6.6666 -6.68,-17.4271 28.1867,-22.0803 38.9467,-28.9735 36.84,-14.4801 73.4266,-29.5068 109.1866,-46.4932 83,-37.68 169.1067,-70.1867 246.92,-118.1467 27.4134,-18.6266 54.08,-41.76 67.48,-72.7466 15.5467,-36.8667 -15.8133,-66.8267 -51.76,-68.3734 -33.9333,-2.1066 -65.6666,12.5334 -95.64,26.7067 -19.8666,9.8667 -38.0533,22.6667 -54.7066,37.2667 -12.1067,9.68 -22.0934,22.64 -35.4134,30.5466 -8.12,3.7334 -17.7866,-2.6933 -17.4666,-11.6133 4.4,-30.48 7.8133,-60.6133 6.72,-90.9333 -35.9734,44.9733 -74.8934,87.52 -110.9334,132.44 -20.3466,25.1066 -40.4933,50.4933 -61.7466,74.8 -19.9734,24.6133 -46.9734,54.0133 -71.4,15.2 -33.4933,-80.64 26.0533,-286.2 86.6266,-348.76 57.84,-69.68 149.4267,-47.4934 178.4,35.8533 57.16,-77.1733 183.9067,-275.04 60.0534,-341.5333 -45.64,-24.2133 -100.1734,-15.8 -147.2,-0.52 -72.1867,24.9867 -125.0667,86.48 -158.5867,153.1467 -14.64,29.8799 -26.2133,61.0933 -34.4,93.3466 -4.6933,13.44 -5.2933,30.0667 -15.56,40.6267 -17.08,10.0666 -21.0666,-16.2534 -26.68,-26.9067 -24.6933,-57.92 -48.76,-117.7866 -91.5466,-165.0933 -53.4267,-62.64 -146.28,-102.28 -225.4134,-66.52 -116.5333,49.4 -90.7733,168.5866 -50.08,263.16 41.4267,91.64 93.64,178.7866 155.0134,258.4533 40.9466,52.68 86.7733,102.36 130.4,151.9197 23.3066,26.5464 46.5466,53.1735 68.1333,81.16 6.2667,9.3067 18.44,20.3468 10.92,32.0932 -2.6933,3.787 -7.4933,5.1735 -11.92,4.6266" />
</g>
</svg>