<svg xmlns="http://www.w3.org/2000/svg" viewBox="3058.65 1828.63 1295.12 956.89" width="1295.12" height="956.89">
<g fill="#FF0061" fill-rule="nonzero" stroke="none">
<path
       id="path21"
       d="m 3608.6932,2668.0934 c 29.4,-15.7467 48.72,-46.32 70.6934,-70.7333 34.6266,-43.7067 68.6533,-87.92 99.6666,-134.28 66.24,-97.9067 127.5867,-202.4134 172.3067,-311.72 -197.0933,91.8 -321.48,304.68 -342.6667,516.7333 z m -61.3866,97.4267 c -195.9467,-129.6267 -434.0267,-338.5067 -468.6533,-582.4533 -16.44,-106.7867 17.9333,-246.9334 132.0933,-283.2667 159.7866,-48.4 322.4933,80.1867 338.4266,240.9733 18.96,-78.9866 51.6134,-156.4133 109.6534,-214.76 72.0133,-74.76 191.2533,-125.5866 290.7066,-77.3866 86.1867,42.3333 103.4667,152.2 74.6134,236.1733 115.1066,-18.1067 248.8666,28.72 309.6266,131.8 39.6534,66.52 36.5467,154.52 -8.6133,216.9066 -39.6933,60.5067 -123.2267,104.04 -193.2267,71.04 -100.3866,-47.9333 -45.6533,-208.7733 53.72,-218.36 80.1334,-11.8533 121.8667,103.32 40.28,133.32 -30.1866,11.3467 -77.2,3.5467 -89.7066,-29.64 -3.28,-9.32 -2.4267,-19.6666 4.7866,-26.76 4.4134,-5.5333 14.1067,-1.7866 13.7067,4.9867 17.6,21.88 59.2933,19.9733 74.6667,-3.64 13.36,-23.4267 -5.2667,-50.5733 -29.7067,-55.6 -21.1867,-5.2533 -43.0667,3.3467 -59.5867,16.5333 -50.48,36.8134 -58.84,121.9867 7.28,146.8 73.6667,24.0667 145.9334,-41.0266 163.7067,-109.6666 40.6133,-165.0933 -161.8533,-269.0267 -302.0933,-231.3067 -74.12,191.4 -194.88,363.9733 -334.7867,513.08 -14.6667,14.1733 -28.36,29.8267 -45.4267,41.16 -25.8,17.36 -49.28,4.88 -46.2266,-27.12 3.1733,-48 9.48,-96.0133 22.76,-142.3333 15.48,-54.2934 38.1066,-106.4134 65.9866,-155.4667 66.9467,-116.56 170.96,-215.64 298.5334,-261.7733 59.7733,-159.9467 -34.64,-267.36 -197.4134,-198.4933 -78.1066,36.5733 -135.04,108.4133 -167.5866,186.9333 -14.6934,36.6933 -26.5867,74.4133 -38.3067,112.1333 -5.8,12.8133 -5.2533,33.36 -20.7333,38.3467 -6.1867,1.3066 -11.9867,-1.7067 -15.04,-7.0934 -13.8934,-127.5466 -59.1867,-242.6399 -192.08,-284.2133 0.3733,0.093 0.7466,0.1867 1.12,0.28 0.68,0.1734 1.36,0.3467 2.0266,0.52 -144.6799,-39.3466 -218.7866,53.2934 -218.3466,190.52 3.64,109.3067 54.4533,211.4133 120.9733,296.1733 71.0534,91.24 156.2133,170.2534 242.72,246.56 24.9867,21.8134 50.8267,42.76 74.7467,65.7334 9.0933,9.08 -3.0267,25.8533 -14.6,19.36" />
</g>
</svg>