<svg xmlns="http://www.w3.org/2000/svg" viewBox="5512.61 4.15 1157.53 472.85" width="1157.53" height="472.85">
<g fill="#FF0061" fill-rule="nonzero" stroke="none">
<path
       id="path6"
       d="m 5771.7999,251.76013 c 10,-4.28 9.5333,-22.16 10.8933,-31.57333 1.3867,-21.89333 -3.3733,-43.66667 -9.9333,-64.44 -8.7334,20.76 -13.3334,43.18667 -11.8534,65.73333 1.1067,9.16 2.4667,25.18667 10.8934,30.28 z m 482.1999,55.09333 c 24.8934,-1.82666 40.5734,-26.64 28.9467,-49.30666 -9.6667,-16.45333 -29.6267,-22.46667 -46.92,-27.48 -14.4933,15.64 -25.9067,41.37333 -12.9867,61.12 6.8134,9.82666 19,16.04 30.96,15.66666 z m -416.2799,52.44 c 22.56,-13.45333 40.5466,-33.30666 56.2266,-54.10666 -21.28,14.92 -43.04,31.2 -56.2266,54.10666 z m -83.6934,91.78667 c -99.8133,-80.05333 -227.96,-185.18667 -221.4133,-325.70666 7.7333,-71.12 86.52,-114.106665 153.0933,-101.226666 35.56,5.92 66.2,30.52 83.6667,61.493332 32.7733,-41.533332 88.2667,-69.373331 141.3867,-55.773332 79.0666,21.146666 77.48,134.653326 52.36,196.466666 79.9066,-32.92 168.7733,-48.18667 254.5866,-33.85334 48.6667,-42.48 135.0133,-39.08 196.32,-42.49333 75.28,-6.68 162.72,-16.57333 211.0667,-81.959997 3.36,-5.133333 6.5066,-10.426666 10.52,-15.093333 6.1466,-7.533333 18.2,-0.746666 14.5333,8.493333 -4.8667,11.826667 -13.8533,21.28 -21.4133,31.4 -8.3067,10.439997 -17.6,19.693337 -27.84,28.239997 -43.44,34.2 -99.3334,47.30667 -152.7334,56.89333 -60.56,9.90667 -124.2533,7.48 -181.8266,31.17334 17.9333,10.53333 35.04,26.82666 38.9333,48.05333 4.8133,26.81333 -10.8533,55.30666 -36.2,65.37333 -24.2533,11.37333 -55.4933,3.52 -72.28,-17.17333 -18.44,-22.57334 -16.3333,-56.28 -3.8133,-81.2 -87.6934,-4.4 -176,16.53333 -254.6,55.04 -16.9067,31.14666 -72.8267,115.26666 -111.3333,112.45333 -17.56,-0.73333 -27.96,-18.64 -23.96,-34.89333 12.0533,-48.68 87.56,-94.97333 130.3333,-116.85333 10.7467,-22.98667 19.4933,-47.34667 21.1867,-72.86667 2.5866,-40.72 -6.3467,-103.93333 -58.0934,-105.146663 -45.9066,-3.013334 -85.4666,29.533332 -109.12,66.240003 11.76,38.47999 13.68,79.83999 6.7067,119.39999 -5.6933,28.58667 -35.0267,33.94667 -51.8533,10.72 -9.12,-11.84 -13.3334,-26.44 -15.28,-41.06666 -4.8,-36.78667 5.7466,-74.74667 24.6533,-106.26667 -14.1467,-22.333331 -36.12,-39.959997 -62.16,-45.879997 -41.64,-8.373333 -92.36,10 -107.8,52.026667 -6.2267,18.85333 -2.48,39.2 0.5467,58.36 9.4666,44.2 32.2,84.09333 59.5333,119.63999 31.6133,41.82667 70.2933,77.45334 106.3333,115.30667 8.7334,9.48 17.8667,18.70666 25.64,29.01333 1.6934,2.34667 3.3334,4.92 3.6667,7.86667 0.7733,5.36 -4.0533,10.06666 -9.3733,9.72 -5.04,0 -9.88,-3.14667 -13.9734,-5.92" />
</g>
</svg>