<svg xmlns="http://www.w3.org/2000/svg" viewBox="1396.08 949.77 1328.51 683.37" width="1328.51" height="683.37">
<g fill="#FF0061" fill-rule="nonzero" stroke="none">
<path
       id="path8"
       d="m 2027.3999,1436.6001 c 6.7867,4.8267 13.64,9.5333 20.5734,14.1333 130.8133,-61.1733 267.1866,-195.5066 261.3733,-349.44 -4.0667,-52.4133 -60.2533,-94.9866 -110.5733,-71.24 -51.6934,21.6267 -84.9067,70.8534 -107.7334,120.0267 -10.4666,21.0533 -15.6266,46.1867 -31.88,63.6933 -10.5466,8.8534 -28.1466,2.9067 -30.1866,-11.0133 -0.027,0.013 -0.053,0.04 -0.08,0.067 9.92,-64.4 -21.4534,-145.3334 -71.5067,-187.7867 -108.36,-79.70665 -162.5866,77.5867 -136.6266,164.24 32.5733,108.0667 118.1466,191.6667 206.6399,257.32 z m -581.2266,152.6267 c -10.0533,-5.24 -32.1067,-4.3867 -30.0933,-19.9734 1.44,-6.4533 7.92,-9.4 13.48,-7.8133 57.5866,4.0133 115.1066,10.5867 172.96,6.8533 136.0533,-6.8266 268.7066,-41.8666 393.92,-94.6266 -104.6667,-79.2667 -212.9334,-187.0534 -223.6934,-324.8267 -2.2133,-69.4933 23.6134,-151.34665 93.3467,-179.06665 99.7733,-30.65334 169.5066,81.89335 188.8133,165.43995 36.5733,-62.6533 92.9733,-126.3733 169.2133,-134.24 51.8934,-3.54662 98.36,35.3867 112.4667,84.0134 41.7733,162.9733 -99.84,326.08 -235.12,398.2533 164.0133,89.64 359.7467,106.0933 542,77.2267 14.88,-2.4934 29.76,-5.2 44.84,-6.1067 6.4,-1.88 14.12,-0.1467 16.28,6.9067 1.8667,5.8 -1.4533,12.04 -7.16,13.9466 -62.4667,24.1467 -129.6933,33.5734 -196.2267,37.9334 -156.4,12.6533 -317,-22.32 -451.2933,-104.3067 -102.72,44.7733 -210.2266,81.76 -322.0533,94.2667 -93.6533,11.3733 -190.5467,13.5466 -281.68,-13.88" />
</g>
</svg>