<svg xmlns="http://www.w3.org/2000/svg" viewBox="1626.09 2804.76 2401.29 600.65" width="2401.29" height="600.65">
<g fill="#FF0061" fill-rule="nonzero" stroke="none">
<path
       id="path18"
       d="m 3313.6266,3176.8667 c 18.9067,1.0134 37.9066,-0.9333 56.3066,-5.32 43.1467,-87.64 -31.7733,-204.92 -130.2399,-157.4666 -84.5067,59.5333 -13.72,162.7866 73.9333,162.7866 z m -570.2,99.8267 c 74.6667,-31.76 136.88,-89.7067 176.44,-160.32 38.2267,-67.2533 66.68,-148.32 46.2933,-225.6933 -15.8666,-58.9467 -66.2,-66.2134 -111.9733,-32.64 -31.1067,26.2533 -52.3467,62.3733 -67.44,99.76 -5.8933,15.1066 -11.1467,30.4666 -15.6267,46.0533 -5.24,13 -3.52,32.4667 -18.72,38.4133 -18.3333,5.76 -26.16,-11.1733 -25.4533,-26.7733 -10.8667,-64.3467 -61.3467,-121.9067 -123.24,-142.0933 -115.0667,-25.6667 -119.24,135.3866 -82.88,206.8133 43.1067,92.9333 134.32,151.2933 222.6,196.48 z m 285.0533,108.72 c -96.24,-0.8933 -191.8933,-23.9733 -279.9866,-62.2267 -368.2934,121.8134 -723.5467,-226.0666 -1091.9467,-95.6533 v -0.027 c -4.3733,1.6 -9.4,-0.7333 -10.4533,-5.52 -0.9733,-4.4666 2.3867,-9.1066 6.92,-9.4266 9.2667,-3.6 18.36,-7.6267 27.7333,-10.96 338.4267,-123.68 666.9467,159.64 1007.8133,92.2666 -88.0666,-47.4666 -174.48,-113.5066 -211.88,-209.4666 -34.9866,-85.5467 -27.5866,-228.92 80.5067,-253.44 82.44,-13.9067 156.92,53.9333 189.8267,124.1066 18.04,-48.9333 44.5333,-97.8133 86.32,-130.3066 56.6666,-41.1867 130.76,-37.1067 163.6533,30.6533 68.6133,151.7733 -61.8133,374.1333 -199.9733,445.3733 125.28,48.36 269.4,68.04 397.96,21.1867 61.52,-22.6133 120.52,-58.7067 156.0133,-115.28 -61.0933,10.8267 -131.4,-7.7733 -167.08,-61.3733 -36.7733,-51.4267 -23.72,-129.1467 29.8267,-163.72 116.12,-71.7067 240.9866,54.44 203.4266,175.64 73.04,-28.64 139.3867,-71.3067 210.64,-103.8134 66.04,-28.76 137.12,-51.56 209.68,-52.84 61.48,2.3334 125.8133,24.3067 169.9067,68.1334 25.8933,16.5066 10.1733,40.4 -8.68,28.84 -6.64,-5.96 -15.2534,-8.3867 -22.76,-12.7734 -102.7334,-83.8533 -224.5467,-57.0666 -336.9734,-9.5733 -79.92,35.6667 -152.3466,87.0667 -234.8,117.1333 -66.32,137.76 -231.0933,194.88 -375.6933,193.0667" />
</g>
</svg>