<svg xmlns="http://www.w3.org/2000/svg" viewBox="2347.05 443.75 510.04 623.00" width="510.04" height="623.00">
<g fill="#FF0061" fill-rule="nonzero" stroke="none">
<path
       id="path3"
       d="m 2568.2266,893.97345 c 39.9333,42.50666 85,79.65333 126.0133,120.99995 11.8534,-60.06662 21.2534,-120.93328 43.1867,-178.43995 29.5333,-80.74666 73.12,-193.27999 58.1067,-279.13333 -5.0267,-20.74666 -12.2934,-48.66666 -36.4134,-53.46666 -52.72,-7.74667 -88.88,67.70666 -103.84,108.85333 -10.16,27.84 -12.5733,57.44 -14.2666,86.8 -0.2134,14.22666 -7.6267,30.04 -24.4,24.37333 -10.0134,-4.58667 -12.56,-16.46667 -15.8134,-25.97333 -5.7066,-15.28 -12.56,-30.17334 -21.5733,-43.8 -15.6267,-22.38667 -35.3467,-44.21333 -61.6933,-53.57333 -16.12,-4.74667 -33.3334,-8.32 -50.0534,-4.8 -48.72,12.01333 -67.0266,39.73333 -49.04,88.15999 9.4934,27.44 24.2934,52.44 40.4267,76.44 32.2,47.77333 69.3467,92.16 109.36,133.56 z m 117.6133,152.77335 c -7.8933,-5.0934 -13.12,-13.2934 -21.3866,-17.88 -23.7067,-16.3867 -47.0134,-33.42669 -69.1867,-51.84002 -46.7867,-38.01333 -89.8533,-80.45333 -128.8667,-126.38666 -42.6533,-52.61334 -95.4933,-117.06667 -99.3466,-187.2 -3.2667,-65.78666 72.7733,-101.26666 129.88,-89.44 53.6666,8.34667 88.64,54.64 115.72,97.82667 2.2266,-50.93333 15.9066,-101.98667 43.44,-145.2 23.12,-40.46666 69.2266,-76.32 117.96,-62.88 35.7733,8.97334 55.36,44.98667 63.04,78.58667 10.7733,45.06666 5.52,91.98666 -3.3734,136.90666 -16.28,87.82667 -57.52,167.77333 -87.16,251.32 -8.56,25.62666 -17.3733,51.15999 -25.0666,77.03998 -2.7334,10.6533 -7,20.8 -10.5334,31.1867 -3.1066,11.5733 -15.4933,14.8666 -25.12,7.96" />
</g>
</svg>