<svg xmlns="http://www.w3.org/2000/svg" viewBox="3102.14 945.36 1124.91 824.36" width="1124.91" height="824.36">
<g fill="#8AE800" fill-rule="nonzero" stroke="#8AE800" stroke-width="33.7" stroke-linejoin="round">
<path
       id="path9"
       d="m 3652.5466,1328.2001 c 0,0 0,0 0,0 32.7066,-27.2933 21.6266,-127.3333 14.3066,-166.64 -16.96,41.5067 -44.7066,128.1067 -14.3066,166.64 z m -62.4534,421.52 c -34.2933,-17.0133 -63.9066,-42.92 -92.3733,-68.2933 -41.8533,-38.9334 -80.9333,-81.1867 -114.5867,-127.44 -87.8266,-117.3734 -156.9866,-267.8267 -120.3866,-416.56 41.7467,-200.42669 312.64,-263.64002 401.6533,-61.9467 64.88,-84.74665 181.28,-134.97332 286.8667,-110.11999 139.2933,34.46667 159.3333,172.95999 115.16,291.47999 -32.72,86.5067 -91.28,160.9733 -155.9467,226.0533 -53.7867,52.84 -113.04,98.8134 -173.3333,143.76 -19.24,14.44 -39.1867,28.1334 -59.08,41.4267 -7.9067,4.76 -19.1067,15.4267 -27.2534,6.0933 -7.6666,-11.5333 8.6134,-19.0533 15.7734,-25.44 14.6533,-11.2 28.6666,-23.1866 42.8533,-34.9466 53.6667,-44.1334 107.8533,-87.8934 158.0133,-136.0267 90.72,-92.4267 183.12,-208.2533 178.1334,-344.56 -10.48,-152.63999 -189.5867,-153.39999 -289.8,-82.8533 0.2133,-0.1467 0.4266,-0.2934 0.6533,-0.4267 0.3067,-0.2133 0.6133,-0.4267 0.92,-0.6267 -30.8933,20.3334 -56.84,47.9867 -74.8,80.3467 12.1733,48.5867 24.76,187.16 -15.3067,221.7467 -39.7333,25.3333 -66.84,-33.68 -66.8533,-66.5867 -4.0533,-64.0933 16.1067,-128.52 47.2667,-184 -54.84,-125.79999 -199.4667,-144.86665 -291.7067,-46.7467 -36.1466,41.0134 -51.4266,95.84 -55.3733,149.4267 -7.16,137.4533 66.44,263.2667 147.16,369.0133 30.52,38.2534 63.5066,74.6534 98.3333,109.04 18.2267,18.5467 38.9067,34.9734 54.9467,55.52 9.2933,7.1334 -1.0934,16.6134 -10.9334,12.6667" />
</g>
</svg>