<svg xmlns="http://www.w3.org/2000/svg" viewBox="1918.33 3487.44 2757.45 730.55" width="2757.45" height="730.55">
<g fill="#FF0061" fill-rule="nonzero" stroke="none">
<path
       id="path15"
       d="m 4021.8666,3956.12 c 46.84,-26.5866 95.7466,-63.24 108.0933,-118.6266 10.8667,-58.04 -49.84,-101.1467 -103.1467,-97.28 -43.2933,3.7866 -87.1066,31.7466 -101.68,73.7866 -20.3866,65.32 43.4,118.1067 96.7334,142.12 z m -990.24,32.6 c 1.0667,-0.027 2.12,-0.053 3.1733,-0.08 0.92,-0.093 1.84,-0.2 2.76,-0.3066 l 0.3067,0.1733 c 17.5333,-4.7467 5.2133,-29.6933 0.9467,-41.1067 -24.3067,-43.68 -75.36,-61.2133 -120.3734,-75.5066 25.48,47.1333 58.0667,106.7733 115.36,116.9733 0,-0.013 -2.1733,-0.1467 -2.1733,-0.1467 z m 66.16,178.6932 c 2.1467,-0.2134 4.28,-0.5734 4.32,-0.6666 60.1067,-23 111.1733,-65.2 161.9067,-103.8932 -50.72,-1.48 -101.52,10.7729 -143.4534,40.0265 -14.4133,11.1464 -30.2133,23.1333 -37.12,40.5599 -5.3466,12.2136 -0.2266,25.8266 14.3467,23.9734 z m 0.1067,30.5735 c -35.36,-0.7604 -51.4267,-38.1869 -34.0934,-67.0937 12.96,-23.4396 36.16,-39.2532 58.4134,-53.1464 52.56,-32.3466 114.76,-42.9599 175.72,-42.9199 98.9866,-91.68 253.3599,-231.88 283.3999,-364.9867 21.68,-97.52 -62.72,-135.04 -145.1866,-108.3866 -63.4667,19.92 -113.68,68.7733 -149.4667,123.1466 -24.5333,35.7734 -44.6,74.1467 -64.44,112.6267 -7.7466,12.5067 -14.5466,27.76 -27.7866,35.24 -27.44,7.2267 -22.84,-36.48 -28.9067,-52.9733 -7.48,-33.6 -13,-67.84 -24.2,-100.48 -25.2533,-78.5867 -102.4133,-162.4667 -191.7867,-129.9867 -108.2133,45.5733 -88.4266,193.28 -50.1333,281.8133 72.2533,21.8534 165.0667,56.4934 176.08,142.0934 4.9867,63.7066 -68.6267,53.6533 -102.8133,23.6933 -46.3067,-33.4667 -72.3334,-86.4533 -96.52,-136.68 -281.0667,-64.2267 -646.76,26.0267 -914.6133,122.72 -35.8267,19.88 -42.4534,-14.5333 -23.2267,-21.2667 9.2933,-4.3333 18.5467,-8.8133 27.9867,-12.8666 251.6666,-101.9334 625.3733,-187.0267 893.0799,-128.3334 -17.68,-48.9866 -29.8533,-101.3866 -25.12,-153.7066 7.5734,-104.8667 85.2267,-182.2933 193.4534,-159.0533 41.64,8.6666 75.2,38.3733 101.6266,70.3333 50.8534,60.64 59.68,142.28 67.68,218.08 46.0934,-80.96 83.16,-172.96 160.2533,-230.3067 66.4667,-51.7733 177.4267,-74.1066 240.24,-5.6 109.5867,152.9733 -136.56,377.4667 -240.0266,476.9067 214.1066,12.48 442.5333,30.5062 640.4933,-67.76 -66.64,-31.7867 -131.0133,-111.8934 -86.16,-185.52 24.6667,-40.32 70.1333,-67.52 117.2,-70.9467 58.6,-4.0933 123.04,32.28 136.7867,91.8533 17.2266,69.7334 -34.2534,133.8534 -88.6934,171.0667 60.64,15.92 126.32,15.9867 188.0267,11.44 119.44,-6.6667 236.0667,-33.7067 348.24,-74.64 9.92,-1.1467 38.56,-18.4933 42.3867,-7.1067 1.5733,3.7067 -0.2134,8.08 -3.9067,9.6534 -94.3333,44.6666 -195.4133,74.1333 -299.0667,86.6533 -99.64,12.3733 -203.8266,22.48 -300.8533,-9.6267 -219.4267,129.0798 -485.4,100.8667 -727.76,74.0798 -59.4933,46.9468 -149.7066,125.4801 -226.3066,131.9869" />
</g>
</svg>