<svg xmlns="http://www.w3.org/2000/svg" viewBox="3010.76 14.95 850.80 794.43" width="850.80" height="794.43">
<g fill="#FF0061" fill-rule="nonzero" stroke="none">
<path
       id="path4"
       d="m 3235.3999,527.41346 c 60.2134,60.18666 125.92,114.46666 188.0267,172.62666 17.6933,17.30667 36.72,34.01333 49.3866,55.56 47.8667,-73.13333 95.7334,-146.26666 145.2934,-218.26666 49.36,-79.62667 295.84,-408.71999 149.88,-464.613324 -76.8667,-24.679999 -162.76,12.12 -213.0667,71.906664 -42.48,47.73333 -63.4,108.85333 -82.8533,168.52 -4.3467,15.86666 -23.8134,26.52 -35.3467,10.94666 -4.68,-7 -6.1067,-15.56 -9.0533,-23.33333 -10.36,-29.33333 -22.9334,-57.73333 -36.7334,-85.6 -27.9066,-54.72 -70.9599,-104.85333 -128.5466,-129.013327 -64.3733,-27.36 -149.48,-14.253333 -192.32,44.133337 -25.08,42.61333 -16.6933,96.35999 -4.3333,141.85332 27.7466,100.85334 97.4133,182.46667 169.6666,255.28 z m 239.0933,261.95999 c -18.8533,-3.8 -31.1866,-21.29333 -45.04,-33.34666 -54.16,-44.72 -108.3066,-89.48 -161.0133,-135.90667 -95.0666,-85.70666 -192.4933,-179.31999 -237.68,-301.91999 -28.7866,-76.09333 -43.48,-181.57333 29.0934,-237.759994 45.9866,-37.106665 109.08,-51.213332 166.6,-38.253332 117.9599,22.239999 173.8799,137.839996 218.7599,236.879996 22.04,-102.10667 82.8667,-204.386664 183.5867,-244.119996 68.28,-27.0533326 165.68,-32.1199991 212.76,34.386666 68.1333,102.62666 -46.16,276.43999 -102.6,366.51999 -52.6133,80.25333 -105.9467,158.85333 -162.7867,235.71999 -15.3733,20.93334 -30.2533,42.17334 -45.2666,63.37334 -14.92,17.32 -31.4134,54.8 -56.4134,54.42666" />
</g>
</svg>