<svg xmlns="http://www.w3.org/2000/svg" viewBox="942.19 1940.23 661.17 599.09" width="661.17" height="599.09">
<g fill="#0047FF" fill-rule="nonzero" stroke="#0047FF" stroke-width="19.8" stroke-linejoin="round">
<path
       id="path20"
       d="m 1322.3333,2488.2001 c 2.132,1.9866 4.2707,3.9466 6.4533,5.88 39.5467,-109.9734 84.92,-217.7867 125.5867,-327.3467 16.1067,-49.0133 43.8,-152.84 -3.6533,-189.7333 -18.5734,-13.84 -43.08,-16.0267 -63.9734,-6.1467 -52.5733,23.8267 -68.5786,84.0934 -87.7053,133.5867 -3.048,11.1333 -15.7573,22.8667 -26.2373,12.52 -5.5987,-6.2533 -8.0907,-14.7067 -12.716,-21.6667 -33.612,-67.5333 -116.7774,-121.1866 -169.3094,-40.7466 -13.5706,32.3733 -1.9493,69.8666 5.8854,102.5066 40.6133,130.44 137.012,231.2133 225.6693,331.1467 z m -1.7667,31.12 c -46.9066,-29.4134 -83.332,-73.5867 -121.8066,-112.9734 -77.7547,-85.92 -182.1907,-234.7199 -153.9214,-355.8399 17.5027,-46.8134 70.312,-78.88 119.944,-71.0667 56.856,8.9333 94.1454,57.88 115.1147,107.9733 10.58,-45.36 23.2253,-93.48 57.3827,-127.1866 46.12,-47 124.0666,-50.3067 163.44,6.7466 35.6666,59.8 18,135.72 -0.52,198.5734 -28.08,78.9733 -63.1334,155.3199 -97.04,231.9199 -14.96,33.6934 -30.1734,67.3067 -46.1334,100.5334 -5.64,15.8 -18.16,38.6666 -36.46,21.32" />
</g>
</svg>