<svg xmlns="http://www.w3.org/2000/svg" viewBox="36.46 3449.03 1481.55 654.77" width="1481.55" height="654.77">
<g fill="#FF0061" fill-rule="nonzero" stroke="none">
<path
       id="path16"
       d="m 706.21598,3879.2 c 49.77867,-12.76 90.55733,-49.84 125.45733,-86.1333 -42.252,1.8 -87.51466,5 -124.05599,28.3067 -21.62667,11.7066 -40.11867,59.4 -1.40134,57.8266 z m -100.98533,164.1334 c 60.392,-12.28 -24.36133,-64.8 -46.49866,-73.64 -41.87867,-20.0267 -87.464,-31.6667 -133.41467,-37.4267 41.36267,57.32 105.02,114.16 179.91333,111.0667 z m 0.15333,40.4664 c -94.16666,-3.8 -169.05066,-79.3598 -216.29199,-155.0131 -103.34533,-5.84 -210.45199,3.16 -305.620125,46.4667 -7.1,10.8933 -25.489066,6.6666 -27.007333,-6.36 0.610533,-22.3467 29.978666,-28.3467 45.895328,-38.08 81.7988,-37.6667 173.55747,-46.8667 262.7028,-46.7334 -43.40667,-92.2266 -81.02667,-226.4533 -33.10667,-322.6133 85.872,-133.0666 250.65333,-42.44 287.29866,83.1733 34.67867,-71.0266 81.19867,-142.0266 155.67466,-175.6133 62.19867,-32.44 151.04667,-28.76 194.8,31.7867 54.29069,85.16 -4.288,190.0266 -54.57333,263.0266 115.82662,20.3334 231.45732,53.08 350.17062,39.92 62.7574,-7.2133 130.8734,-16.5066 179.1934,-60.9466 12.3866,-11.2134 23.6,-23.5334 34.6133,-36.08 8.2133,-9.0134 23.88,1.2533 18.88,12.4933 -52.32,119.4933 -201.824,133.1467 -316.5293,130.3467 -99.54,-2.36 -194.41736,-36.0667 -291.77602,-52.84 -37.64267,45.2933 -80.22,88.84 -135.19333,112.3866 -39.28667,23.24 -101.936,12.04 -106.09467,-40.6133 6.68667,-99.9067 135.47733,-107.2667 212.91467,-109.64 44.98266,-58.08 102.56533,-140.64 81.92533,-217.4 -26.84267,-68.0133 -118.812,-62.3866 -171.32933,-28.76 -65.028,36.92 -99.06133,106.5333 -126.47733,173.0667 -6.34267,24.2533 -30.428,48.68 -51.90933,23.12 -6.43467,-8.2 -9.43334,-24.1334 -13.04134,-32.5734 -10.98933,-30.12 -21.65066,-61.4133 -43.256,-85.8 -40.86933,-50.2266 -117.81599,-75.3599 -165.75599,-20.24 -60.66133,81.7334 -17.91067,232.8134 25.976,315.2267 85.79466,5.1733 175.23599,26.8267 243.67332,81.0533 51.704,39.92 34.05467,118.7464 -35.756,117.2398" />
</g>
</svg>