<svg xmlns="http://www.w3.org/2000/svg" viewBox="1244.82 1992.37 1328.94 1024.92" width="1328.94" height="1024.92">
<g fill="#FF0061" fill-rule="nonzero" stroke="none">
<path
       id="path19"
       d="m 2173.5066,2831.5734 c 6.2533,-1.2667 12.3467,-3.3867 17.6667,-6.96 -15.4,-18.1867 -37.68,-29.1467 -57.8667,-41.2133 -55.6,-28.7334 -119.28,-36.96 -181.0133,-41 55.7333,41.12 150,99.3866 221.2133,89.1733 z m -4.5733,34.36 c -87.3734,3.5067 -198.5333,-71.1467 -264.8,-124.84 -122.4,1.0933 -242.8667,32.2 -355.8933,77.7867 -80.6534,33.2533 -152.7734,83.7866 -220.2147,138.52 -11.6413,9.4266 -23.2147,18.9466 -35.0107,28.2 -7.904,5.32 -18.156,16.1866 -28.1906,11.6933 -6.32,-4.12 -3.22,-11.6 1.672,-15.5333 7.348,-7.4 14.8866,-14.6 22.372,-21.8534 64.7453,-63.1066 136.492,-120.0666 217.1586,-161.4666 109.8667,-53.72 229.8,-89.7334 351.8934,-99.8667 -89.6134,-88.24 -204.2934,-279.4667 -165.8,-408.2 14.1333,-49.7733 55.12,-89.4267 103.8133,-105.6266 39.04,-12 81.4933,-6.92 118.8667,8.4666 86.9866,34.44 140.5333,116.4 185.9466,193.96 11.76,-107.72 43.8533,-216.7333 115.08,-300.6133 24.4933,-30.1867 54.2267,-56.7333 89.1733,-74.1867 72.12,-38.0933 172.12,-30.8 217.7334,43.5867 32.6666,53.28 35.88,119.2667 31.0266,180.0666 -6.1066,76.0934 -31.7333,148.72 -61.1733,218.5867 -35.32,83.9733 -85.8933,162.2133 -137.6533,236.4 -21.0934,28.9467 -40.44,58.8933 -64.96,85.0667 -6.5734,7.32 -11.1734,18.24 -23.1067,11.9333 -5.56,-3.4 -7.52,-11.04 -4,-16.6267 1.6533,-2.6266 3.24,-5.2933 4.7333,-8.0133 11.7067,-25.28 28.56,-47.6267 43.44,-71.0533 25.2267,-39.5067 49.36,-79.7067 73.7067,-119.7467 42.48,-71.76 76.6933,-148.24 102.5467,-227.5067 26.5733,-80.8 51.7066,-256.0399 -40.9867,-301.4266 -41.04,-18.8533 -89.3733,-11.6533 -128.12,9.5067 -30.4,16.3066 -55.4933,40.6933 -76.7867,67.56 -53.4666,65.92 -83.92,148.4799 -94.3333,232.2266 -4.2933,29.5333 -5.3467,59.64 -12.3333,88.7333 -3.1334,15.1334 -18.08,27.9334 -33.9067,22.8934 -14.08,-4.2267 -20.3733,-18.7867 -27.3067,-30.4534 -47.84,-81.3066 -98.1866,-177.1866 -195.0399,-205.9466 -49.0667,-15.6134 -99.9734,0.5333 -130.72,41.9466 -17.56,23.72 -24.3734,53.88 -24.1867,83.04 0.6133,56.16 19.9067,110.1867 43.0533,160.72 32.1067,68.16 76.48,130.5067 130.92,182.64 85.9067,-1.4 187.0533,6.0534 263,49 19.76,11.4667 39.2533,24.1867 54.9733,40.92 8.72,9.32 15.96,21.2534 16.8934,34.2 2.72,33.2 -36.7867,44.6267 -63.48,45.3067" />
</g>
</svg>