<svg viewBox="0.00 0.00 1106.52 100" xmlns="http://www.w3.org/2000/svg" preserveAspectRatio="none" aria-hidden="true"><g fill="HEADING_COLOUR"><g transform="scale(1.596690)"><g transform="translate(293.68749,-127)"><path id="path7" d="m 85.172124,151.77651 c 28.409186,2.04965 56.761936,4.58258 85.054706,7.44008 l 62.53339,-0.92427 z m -142.799512,4.01108 c -53.948542,0 -107.880502,2.69171 -161.606082,9.16871 l 294.277345,-4.33916 c -44.160731,-3.0198 -88.431528,-4.82955 -132.671263,-4.82955 z m 405.647148,33.84198 c -0.20108,0 -0.39862,-0.0106 -0.5997,-0.0388 -58.72692,-7.37658 -118.03592,-14.82371 -177.62715,-20.8421 l -458.64778,6.75923 c -0.0233,0 -0.0473,0 -0.0709,0 -2.44369,0 -4.49615,-1.85209 -4.73815,-4.29332 -0.24448,-2.46239 1.43827,-4.70252 3.87173,-5.15408 83.92266,-15.5434 168.46056,-20.71865 252.881343,-19.67793 L -260.2146,136.52242 c -2.62784,-0.11642 -4.66407,-2.34244 -4.54801,-4.9671 0.11642,-2.62822 2.3368,-4.66374 4.96817,-4.55084 L 394.7699,155.9146 c 2.57527,0.1129 4.58962,2.25073 4.55083,4.82955 -0.0353,2.57527 -2.11314,4.65312 -4.69196,4.68841 l -147.97262,2.18369 c 34.14183,4.00756 68.1355,8.27617 101.94925,12.5236 2.61054,0.32809 4.4591,2.70934 4.13102,5.3199 -0.29985,2.40948 -2.35302,4.16983 -4.71665,4.16983"  /></g></g></g></svg>