<svg viewBox="0.00 0.00 1498.52 100" xmlns="http://www.w3.org/2000/svg" preserveAspectRatio="none" aria-hidden="true"><g fill="HEADING_COLOUR"><g transform="scale(1.974538)"><g transform="translate(208.49172,-86.518765)"><path id="path20" d="m 545.67369,137.16351 c -0.14817,0 -0.29634,-0.007 -0.44802,-0.0212 -133.20535,-12.3437 -267.5537,-18.86303 -401.8421,-19.53684 -108.951868,5.00945 -218.260079,8.71362 -326.8486,9.94481 -2.59291,0.0282 -4.7131,-2.00025 -4.81189,-4.57906 -0.0988,-2.57527 1.86973,-4.76602 4.445,-4.93536 108.521494,-7.17902 218.584641,-10.52688 327.69174,-9.98713 53.4529,-2.46239 106.83169,-5.23523 159.99177,-8.184448 l -507.49903,8.533698 c -2.63173,0.0529 -4.79777,-2.04964 -4.84365,-4.68137 -0.0423,-2.62819 2.05317,-4.797775 4.68138,-4.840108 L 530.7124,86.522265 c 0.0282,-0.0035 0.0564,-0.0035 0.0811,-0.0035 2.55413,0 4.66021,2.01789 4.75898,4.579057 0.0988,2.589387 -1.88735,4.783664 -4.47323,4.938887 -83.01918,5.023561 -167.02614,10.110611 -251.54112,14.700251 89.04817,3.07975 178.35033,8.74536 266.56945,16.92275 2.61763,0.23989 4.5438,2.56116 4.30038,5.17876 -0.22931,2.46946 -2.30364,4.32506 -4.73429,4.32506"  /></g></g></g></svg>