<svg viewBox="0.00 0.00 3616.56 100" xmlns="http://www.w3.org/2000/svg" preserveAspectRatio="none" aria-hidden="true"><g fill="HEADING_COLOUR"><g transform="translate(3616.5600,0) scale(-1,1)"><g transform="scale(10.590472)"><g transform="translate(10.583333,-125.67708)"><path id="path9" d="M 329.65926,128.98225 H -9.3352409 c -0.6894331,0 -1.2480921,-0.56054 -1.2480921,-1.24811 0,-0.68721 0.558659,-1.24778 1.2480921,-1.24778 H 329.65926 c 0.69143,0 1.24883,0.56057 1.24883,1.24778 0,0.68757 -0.5574,1.24811 -1.24883,1.24811"  /> <path id="path10" d="m 1.8622772,135.11953 c -0.6772963,0 -1.23334458,-0.54081 -1.24794958,-1.21849 -0.0144727,-0.69215 0.53177548,-1.26259 1.22106798,-1.2774 L 318.79793,125.77939 c 0.67979,0.0151 1.26259,0.53163 1.27495,1.2192 0.0145,0.69181 -0.53166,1.26225 -1.22098,1.2767 L 1.889442,135.11953 c -0.010054,0 -0.017119,0 -0.027165,0"  /> <path id="path11" d="M 302.27523,128.173 H 17.315462 c -0.690033,0 -1.248129,-0.56057 -1.248129,-1.24778 0,-0.68757 0.558096,-1.24814 1.248129,-1.24814 H 302.27523 c 0.68932,0 1.24777,0.56057 1.24777,1.24814 0,0.68721 -0.55845,1.24778 -1.24777,1.24778"  /></g></g></g></g></svg>