<svg viewBox="0.00 0.00 1420.46 100" xmlns="http://www.w3.org/2000/svg" preserveAspectRatio="none" aria-hidden="true"><g fill="HEADING_COLOUR"><g transform="scale(2.282151)"><g transform="translate(80.697909,-94.720828)"><path id="path7" d="m 531.32212,104.86254 c -0.29281,0.29988 0.65617,4.318 -1.14654,5.62682 -0.62794,0.4586 -13.10921,1.6016 -15.45871,1.74625 -17.61066,1.0654 -36.31848,-1.57692 -54.10554,-1.7004 -132.11527,-0.94192 -263.68727,21.4983 -395.629657,27.56958 -5.718546,0.26459 -18.379731,0.85725 -23.392712,-0.0564 -2.106083,-0.38452 -3.450167,-1.31234 -3.072686,-3.67242 L 274.46462,112.26029 -80.697909,126.98171 c 5.164667,-5.11175 15.913788,-7.12962 23.068121,-8.255 12.964583,-2.04258 28.186962,-2.84337 41.461981,-4.01108 C 134.32719,101.46529 286.05337,96.272423 437.30685,95.732673 c 26.76171,-0.0988 53.15302,-0.08467 79.83006,-0.740833 4.58258,-0.112898 21.50888,-1.326462 23.41033,2.497667 5.23523,10.523353 -8.6642,6.805083 -9.22512,7.373033"  /></g></g></g></svg>