<svg viewBox="65 5 553 298" xmlns="http://www.w3.org/2000/svg" preserveAspectRatio="none" aria-hidden="true"><g fill="BOX_COLOUR"><g transform="translate(197.90834,35.454179)"><path id="path18" d="m -127.56796,237.52592 c -3.88408,-3.34079 -1.15713,-8.41727 0.16933,-12.17083 2.01436,-5.12585 4.05342,-10.24467 6.11011,-15.35642 14.88368,-37.25333 30.116644,-74.36554 44.439412,-111.837599 8.060981,-20.753917 15.740936,-41.652454 23.5585,-62.498102 7.852833,-21.55825 15.596314,-43.3916659 28.931314,-62.297018 -0.970148,5.834936 -2.162545,11.676935 -3.545416,17.448371 -4.102815,18.4326475 -11.923898,35.722295 -18.242148,53.452897 -22.634231,61.732581 -47.392166,122.643181 -71.853772,183.663161 65.507291,-17.07446 134.164919,-13.83596 200.914002,-7.10496 97.603018,10.72446 194.489888,27.96117 292.653848,33.274 13.3985,0.95957 26.60295,3.91232 39.624,6.98148 -17.37431,3.66184 -35.20723,3.39725 -52.81083,1.8415 -64.135,-4.10281 -127.87842,-12.46716 -191.48425,-21.44183 -67.34175,-8.83357 -135.099768,-18.48908 -203.171767,-15.96319 -21.417147,1.16769 -42.770795,3.22437 -63.852795,7.22842 -6.240618,1.27704 -12.463618,2.65287 -18.605498,4.3462 -4.18394,0.92782 -9.06285,3.73947 -12.83404,0.43392"  /> <path id="path19" d="m 371.87009,237.56825 c 0.52213,-22.41195 6.54757,-43.9561 11.60992,-65.62724 7.75406,-36.87938 15.38113,-73.889292 19.81906,-111.336643 1.83444,-18.542 4.78015,-39.161879 -2.25425,-56.8889618 C 396.4693,-4.3102803 385.41676,-3.474197 377.43341,-5.1463636 316.15943,-11.838549 254.55739,-14.858345 193.11056,-19.55028 129.27189,-24.09053 65.256826,-27.124428 1.2488271,-25.554549 c -13.8712041,0.567955 -27.7177501,-0.313981 -41.5325181,-1.42875 -1.919103,-0.0071 -3.827648,-0.134064 -5.732648,-0.109379 1.372314,-0.656166 2.82575,-1.185333 4.261564,-1.735666 10.7315,-3.615955 22.038019,-5.432769 33.3163333,-6.173603 128.8309117,-2.949231 257.5806817,9.076981 385.8189317,20.083648 12.11792,1.710954 27.65073,2.575269 33.00235,15.62099967 9.59205,26.21843533 2.48005,60.95999933 -1.18885,88.19088933 -4.03577,24.71915 -8.73125,49.32892 -13.81477,73.8505 -5.3834,25.61167 -10.7668,51.70313 -23.50913,74.82416"  /></g></g></svg>