<svg viewBox="0 297 613 76" xmlns="http://www.w3.org/2000/svg" preserveAspectRatio="none" aria-hidden="true"><g fill="BOX_COLOUR"><g transform="translate(197.90834,35.454179)"><path id="path20" d="m -197.90834,289.8605 c 16.28423,-9.87425 35.31307,-12.99985 53.95032,-15.04595 32.81185,-4.27921 65.860079,-6.80863 98.901245,-8.57605 138.119563,-8.91116 276.524845,-2.38125 414.415095,6.74159 4.51557,0.0917 9.906,0.30691 12.91167,4.13456 2.43768,3.13973 0.9031,8.3326 -3.4149,8.47725 -4.92829,0.127 -9.85308,0.32102 -14.78137,0.33515 -115.58058,0.58912 -231.10825,6.30412 -346.438348,13.62427 78.140268,4.80131 156.015948,13.11275 233.969268,20.23181 7.19666,0.89252 14.7461,0.19754 21.63585,2.76225 4.84717,1.68979 3.7465,9.271 -1.4464,9.40504 -17.653,1.36525 -35.42593,0.66323 -52.85668,-2.52587 2.88573,-0.78671 5.85965,-1.48873 8.79475,-2.15196 -85.95783,-7.69761 -171.852167,-17.41662 -258.14512,-20.28119 -6.501712,-0.20108 -12.999879,-0.44802 -19.505083,-0.5856 -5.887879,-0.11642 -11.77925,-0.16933 -17.667129,-0.25755 -3.880538,0.25755 -6.565186,-4.53318 -4.15925,-7.66937 4.473231,-4.51908 19.759083,-3.48191 26.341916,-4.33565 19.413379,-1.28058 38.8161476,-2.76576 58.233045,-3.99698 C 102.61599,284.1173 192.52493,280.018 282.47268,277.42157 159.52609,269.96032 36.032724,269.20184 -86.815088,278.73742 -123.95552,281.44324 -160.782,287.38755 -197.90834,289.8605"  /></g></g></svg>