<svg aria-hidden="true" preserveAspectRatio="none" viewBox="-147.373 175.712 250.733 73.973" xmlns="http://www.w3.org/2000/svg" style="position:absolute; top:-2px; left:-4px; width:calc(100% + 8px); height:calc(100% + 4px); z-index:-1; overflow:visible;">
    <defs><filter id="ink-tex" x="-5%" y="-20%" width="110%" height="140%"><feTurbulence type="fractalNoise" baseFrequency="0.015 0.05" numOctaves="2" seed="3" result="noise"/><feColorMatrix in="noise" type="matrix" values="0 0 0 0 0  0 0 0 0 0  0 0 0 0 0  0.4 0.4 0.4 0 0.25" result="alphaMap"/><feComposite in="SourceGraphic" in2="alphaMap" operator="in"/></filter></defs>
    <path filter="url(#ink-tex)" d="m 69.224088,210.4435 c 2.280708,1.31939 4.960038,0.98425 7.417144,1.13241 5.420783,0.32809 10.821802,0.69147 16.212608,1.28059 2.477902,0.27164 3.832225,1.67216 4.866931,2.99156 1.588558,2.02494 2.764709,4.36033 2.974979,6.83332 0.17496,2.05316 -2.19041,4.2686 -4.763218,4.5861 -1.025525,0.127 -1.916986,0.47977 -2.432765,1.04068 -2.035519,2.21192 -4.972394,2.79048 -8.037671,2.92455 -1.648539,0.0705 -2.786592,1.14652 -4.458758,1.06537 2.940394,1.29471 6.058958,1.97908 9.31156,2.24015 1.335617,0.10935 2.23274,0.41981 1.835865,1.64393 -0.234606,0.72322 0.3048,0.92075 0.828675,1.3053 1.190969,0.87135 2.011891,1.97554 2.714969,3.15029 0.732022,1.22766 0.574331,2.37421 -0.694267,3.15383 -2.441919,1.50283 -5.313548,2.29306 -8.634942,1.27355 -3.280119,-1.00897 -7.10565,-1.10774 -10.701522,-1.15713 -13.986219,-0.18696 -27.973866,0.0353 -41.956201,0.39158 -9.831917,0.25048 -19.680063,0.33515 -29.4865767,0.89958 -6.9507814,0.39865 -13.9273146,0.38807 -20.8678643,1.07598 -4.089048,0.40569 -8.268407,0.65969 -12.368035,0.67734 -11.379552,0.0459 -22.759106,1.23473 -34.122077,0.381 -7.689143,-0.57857 -15.369468,-0.51152 -23.023335,-0.17992 -8.645525,0.37748 -17.330207,0.53975 -25.907997,1.80975 -2.7686,0.40923 -5.69101,0.0917 -8.53581,0.21873 -1.97309,0.0847 -2.23697,-1.53458 -2.18723,-2.07433 0.2593,-2.81871 -2.06551,-5.50333 -1.0287,-8.15623 0.96944,-2.48357 0.96062,-5.06235 1.69016,-7.38365 1.02341,-3.25612 3.59693,-6.60752 8.4963,-7.51062 1.78929,-0.33163 1.61678,-1.3829 1.49331,-2.24015 -0.16827,-1.16417 -1.41076,-0.60325 -2.29164,-0.60325 -9.89189,-0.0106 -19.78943,1.61219 -29.68449,-0.0847 -1.55081,-0.2681 -2.40489,-0.68791 -2.16006,-2.01435 0.23954,-1.29823 -0.46954,-2.41654 -0.87206,-3.6054 -1.25695,-3.71475 2.98273,-8.39964 7.39069,-9.51089 6.1976,-1.56279 12.43718,-2.97392 18.77483,-4.14512 3.07517,-0.56799 6.1715,-1.143 9.25548,-1.87325 -2.04541,-0.53272 -4.12291,-0.4445 -6.1976,-0.33867 -3.27131,0.16227 -6.5465,0.28927 -9.80898,0.53268 -1.74202,0.13052 -3.14608,-0.62089 -4.72123,-0.91016 -0.16545,-0.0318 -0.3623,-0.0564 -0.47625,-0.14465 -0.48613,-0.37042 -0.62477,-4.8895 -0.27622,-5.36575 2.39253,-3.25967 6.73523,-3.47485 10.58509,-4.30035 1.45309,-0.31044 2.81658,-0.92075 4.42313,-0.95602 1.26647,-0.0282 0.74859,-1.09008 0.74189,-1.69333 -0.0455,-4.1134 1.83586,-5.588 7.00229,-5.67267 4.99462,-0.0812 10.16952,-0.007 14.923908,-0.7973 9.625893,-1.59453 19.354799,-1.8062 29.031141,-2.59995 4.004733,-0.32808 8.100129,-0.1623 12.156016,-0.3034 12.311592,-0.4304 24.625652,-0.84666 36.943239,-1.11477 7.5953064,-0.16581 15.1994313,-0.0882 22.7993228,-0.0635 7.5222792,0.0212 15.0442082,0.19402 22.5654282,0.14462 3.747559,-0.0246 7.37588,0.61032 11.06664,0.87138 1.394531,0.10229 2.619727,0.4445 3.09386,1.78859 0.15875,0.45153 0.605015,1.17475 1.614662,1.13945 2.364661,-0.0847 4.552236,0.77965 6.877394,0.87842 2.55905,0.10938 4.938898,0.39865 7.079192,1.79213 0.778245,0.508 2.071528,0.82902 3.339041,0.9172 6.671046,0.45863 11.03384,3.5278 12.270687,8.84767 0.318903,1.36879 0.789861,1.66158 2.372069,1.65806 6.7437,-0.014 13.489861,0.18698 20.229698,0.0741 2.433108,-0.0388 3.999785,0.71967 5.414432,2.09199 2.28952,2.21895 2.72026,5.90195 0.94049,8.17385 -0.13475,0.16933 -0.18484,0.5221 -0.31785,0.53975 -4.716987,0.53623 -7.808034,4.32506 -13.10957,3.98285 -4.970277,-0.3175 -10.007944,0.0811 -15.014919,0.0635 -1.703916,-0.003 -2.8448,1.22767 -4.595283,1.22767"/>
  </svg>