<svg aria-hidden="true" preserveAspectRatio="none" viewBox="-141.552 81.785 251.813 47.955" xmlns="http://www.w3.org/2000/svg" style="position:absolute; top:-2px; left:-4px; width:calc(100% + 8px); height:calc(100% + 4px); z-index:-1; overflow:visible;">
    <defs><filter id="ink-tex" x="-5%" y="-20%" width="110%" height="140%"><feTurbulence type="fractalNoise" baseFrequency="0.015 0.05" numOctaves="2" seed="3" result="noise"/><feColorMatrix in="noise" type="matrix" values="0 0 0 0 0  0 0 0 0 0  0 0 0 0 0  0.4 0.4 0.4 0 0.25" result="alphaMap"/><feComposite in="SourceGraphic" in2="alphaMap" operator="in"/></filter></defs>
    <path filter="url(#ink-tex)" d="m 36.649062,82.417286 c 11.636023,-0.02469 23.276636,0.03528 34.905603,-0.130527 3.650535,-0.05292 3.906652,1.471084 4.655238,2.472267 0.754962,1.008592 1.445683,1.30457 3.299883,1.302102 8.522414,-0.0113 16.682164,1.373717 25.052524,1.971675 3.76131,0.268465 7.33353,4.320116 4.90466,5.7404 -2.04258,1.194506 -5.34527,1.776235 -8.13575,2.58445 -0.70943,0.205316 -2.08492,0.1143 -1.840789,0.729898 1.227299,3.094209 -3.814233,3.179589 -6.878823,4.018839 -2.387944,0.65441 -3.371135,1.03258 -2.339631,2.63666 1.086565,1.68946 1.30564,3.03777 -3.391958,4.30636 -4.831635,1.30493 -9.45515,1.83163 -14.482921,2.35868 4.181475,0 8.387292,0.15275 12.537704,-0.0395 5.022162,-0.23283 5.668434,1.92547 7.123298,3.52849 1.374775,1.51518 -0.879819,2.19851 -3.11785,2.71392 -1.931114,0.4445 -2.295181,1.22731 -1.941327,2.27682 0.422619,1.25307 2.148046,1.02765 3.685116,1.07633 0.986711,0.031 1.973078,0.0642 3.072686,0.26141 -5.638456,0.41275 -9.355666,2.62466 -13.929439,4.01285 -1.151467,0.3496 -2.81268,0.31679 -4.230502,0.29492 -17.59974,-0.27058 -35.182172,0.25788 -52.756855,0.51223 -17.3894752,0.25188 -34.73591,1.26647 -52.117622,1.79493 -15.491179,0.47061 -30.934025,1.32257 -46.466125,1.49649 -10.290881,0.115 -20.567295,0.57855 -30.852532,0.86042 -6.15668,0.16933 -6.69008,-0.0529 -7.02345,-2.65077 -0.26776,-2.08456 2.36608,-3.64278 6.5405,-3.87879 0.57079,-0.0321 1.13524,-0.0984 1.92652,-0.16863 -0.55563,-1.50601 -2.45005,-1.7018 -4.72687,-1.69651 -7.8553,0.0187 -15.71096,0.0258 -23.5652,-0.0187 -1.47991,-0.008 -4.23157,0.32702 -4.15714,-0.53693 0.13194,-1.53 -3.39548,-2.69911 -0.73871,-4.52579 2.08632,-1.43475 5.70724,-2.05493 6.86188,-3.92465 -0.94509,-0.53975 -2.20275,-0.32914 -3.25932,-0.49601 -4.16207,-0.65793 -7.14798,-3.28542 -6.78391,-5.96265 0.25505,-1.87783 4.7318,-4.07634 8.74712,-4.21887 1.84221,-0.0653 3.09845,-0.0455 3.296,-1.464378 0.68686,-4.934301 3.39831,-6.321425 12.51091,-6.878812 0.43322,-0.02646 0.86995,-0.04198 1.30563,-0.05115 2.75802,-0.05856 6.09283,0.383823 8.12836,-0.297037 2.51601,-0.841023 0.18591,-2.722034 0.56162,-4.145846 0.43392,-1.643238 2.33257,-2.143829 5.08212,-2.225675 9.704912,-0.288571 19.409829,-0.876652 29.110158,-0.853017 19.633141,0.04833 39.248997,-0.265287 58.859911,-0.57785 13.31630444,-0.212019 26.605796,-0.916869 39.906926,-1.400175 3.352097,-1.037167 7.296505,0.179917 10.662357,-0.80786"/>
  </svg>