<svg aria-hidden="true" preserveAspectRatio="none" viewBox="-17.992 111.948 255.435 53.407" xmlns="http://www.w3.org/2000/svg" style="position:absolute; top:-2px; left:-4px; width:calc(100% + 8px); height:calc(100% + 4px); z-index:-1; overflow:visible;">
    <defs><filter id="ink-tex" x="-5%" y="-20%" width="110%" height="140%"><feTurbulence type="fractalNoise" baseFrequency="0.015 0.05" numOctaves="2" seed="3" result="noise"/><feColorMatrix in="noise" type="matrix" values="0 0 0 0 0  0 0 0 0 0  0 0 0 0 0  0.4 0.4 0.4 0 0.25" result="alphaMap"/><feComposite in="SourceGraphic" in2="alphaMap" operator="in"/></filter></defs>
    <path filter="url(#ink-tex)" d="m 68.257131,112.49647 c 7.64623,-0.0605 17.381682,-0.0725 28.055727,-0.0221 6.093272,-0.0558 7.518272,-0.0516 14.228022,-0.0441 23.27483,0.0104 46.33642,0.061 66.59949,0.0216 9.45092,-0.061 18.66258,-0.0162 28.04999,0.0467 4.4396,0.0297 6.81855,2.77662 8.25789,4.68374 0.69146,0.91405 1.48873,1.12572 3.21029,1.1871 3.74296,0.1337 7.53179,0.26141 11.176,0.67627 3.58421,0.40887 5.64849,2.04143 7.16191,3.58272 0.66675,0.67909 1.19943,1.50918 1.70391,2.2867 1.53459,2.36326 0.82902,3.58352 -3.41489,5.03449 -1.32644,0.45368 -0.72319,0.88724 -0.31044,1.36067 1.55927,1.79176 1.65804,3.52883 -0.66323,5.19042 -0.19402,0.14111 -0.35983,0.44203 -0.49742,0.43533 -5.34106,-0.25295 -7.08377,3.07057 -12.10027,3.17111 -1.80271,0.036 -1.71804,0.85267 -0.97721,1.31375 1.17475,0.73448 0.92075,1.67887 1.91559,2.46768 0.84666,0.6731 0.65616,1.67957 -0.37042,2.56117 -2.19779,1.88559 0.15523,4.29471 4.30742,4.91101 3.11856,0.46285 6.51933,-0.11959 9.50031,0.95991 2.30365,0.83397 4.74133,4.06929 2.14842,4.63656 -4.72154,1.2858 -2.41697,8.00263 -8.0709,7.93308 -5.8654,0.005 -7.82095,0.005 -12.33316,0.004 -2.1363,-4.2e-4 -4.59464,-0.009 -5.98681,-0.0113 0,0 -18.06346,-6.1e-4 -27.30725,-0.005 -18.09687,0.0136 -34.24781,0.0111 -51.83759,0.008 -13.2942,-1.9e-4 -26.035,0.005 -39.144551,0.01 -8.106766,-0.009 -15.966645,-0.0135 -23.804736,0.006 -6.912142,-0.0114 -13.974596,-0.0201 -21.02467,-0.009 -11.655312,0.0984 -22.93356,0.0368 -34.069897,-0.0141 -7.6570187,-0.0206 -14.9582064,0.0696 -22.3872694,-0.007 -1.3546656,-0.0448 -2.2899556,-1.56818 -2.4240206,-2.40356 -0.303397,-1.89054 -0.991314,-3.71969 -2.3495,-5.53438 -0.913685,-1.22096 -0.744352,-2.71251 1.7145,-3.78777 1.001898,-0.4378 1.845019,-1.16699 -0.567981,-1.30175 -1.915583,-0.10725 -2.441204,-1.24178 -2.384768,-1.54905 0.395102,-2.2038 -2.437666,-4.4007 -2.240102,-6.5597 0.06702,-0.6918 0.268102,-1.32327 1.389936,-1.74272 2.458852,-0.91828 2.709333,-2.6603 5.365749,-3.57435 1.2770648,-0.43885 0.762,-1.62383 0.01402,-2.19956 -1.707435,-1.31975 -0.567954,-2.5079 0.381,-3.58458 1.0936291,-1.24248 2.8892503,-2.32975 4.4767503,-3.44876 0.7761287,-0.5468 2.6705454,-0.67133 2.6070454,-1.52364 -0.091731,-1.18886 0.7443523,-2.55023 -0.5432954,-3.53872 -4.2086212,-3.22227 4.19301998,-11.24399 9.5869745,-11.61053 20.1138712,-0.057 37.6535322,-0.026 61.1379292,-0.0309"/>
  </svg>