<svg aria-hidden="true" preserveAspectRatio="none" viewBox="2.910 151.106 262.994 88.024" xmlns="http://www.w3.org/2000/svg" style="position:absolute; top:-2px; left:-4px; width:calc(100% + 8px); height:calc(100% + 4px); z-index:-1; overflow:visible;">
    <g transform="translate(268.8140,0) scale(-1,1)"><defs><filter id="ink-tex" x="-5%" y="-20%" width="110%" height="140%"><feTurbulence type="fractalNoise" baseFrequency="0.015 0.05" numOctaves="2" seed="3" result="noise"/><feColorMatrix in="noise" type="matrix" values="0 0 0 0 0  0 0 0 0 0  0 0 0 0 0  0.4 0.4 0.4 0 0.25" result="alphaMap"/><feComposite in="SourceGraphic" in2="alphaMap" operator="in"/></filter></defs>
    <path filter="url(#ink-tex)" d="m 4.2140416,173.31864 c 1.6051212,-0.41629 2.5435189,-1.02658 2.5964356,-2.86104 0.059981,-2.2225 2.9668523,-4.22275 5.5244998,-4.35327 2.151936,-0.10935 4.28625,-0.22577 6.155981,-1.37232 0.419788,-0.25751 0.966602,-0.56091 1.421686,-0.5221 1.785064,0.15523 2.480019,-0.508 2.878666,-2.07433 0.818436,-3.19617 3.894667,-4.58258 6.815667,-5.86669 3.665352,-1.61573 7.623519,-2.44123 11.666352,-3.01979 18.235083,-2.61054 36.600712,-1.42169 54.871064,-1.04069 13.437317,0.27869 26.867567,0.11642 40.297787,0.38807 1.70392,0.0317 2.75873,0.42685 2.9704,2.01435 0.13406,1.016 1.02306,0.9666 1.79565,0.97718 1.98612,0.0318 3.97226,0.007 5.96193,0.007 25.90448,-0.014 51.80894,-0.0282 77.71342,-0.0423 1.98966,0 2.92452,0.9384 3.556,2.58234 1.63335,4.2686 1.59102,8.6501 1.43933,13.04925 -0.0423,1.143 1.016,1.82033 1.18533,2.8434 0.0246,0.14816 0.24342,0.26458 0.3669,0.39862 0.64204,0.69146 -0.48683,2.08846 0.74435,2.29658 1.52048,0.25755 3.24202,0.26106 4.72017,-0.11642 2.73756,-0.70202 5.56683,-0.64203 8.32908,-1.0936 3.48544,-0.56798 7.10494,-0.46918 10.66448,-0.6844 2.38829,-0.14462 3.302,1.16772 4.28271,3.58072 1.44288,3.54893 0.70204,7.23193 0.85725,10.8585 0.0423,1.05126 0.0565,2.02845 0.66323,3.03741 0.72673,1.21002 2.51177,2.31775 1.07598,4.02519 1.27352,0.99483 1.08654,2.71285 2.18721,3.72181 1.11831,1.0301 1.10773,2.24367 0.68439,3.27729 -0.93485,2.286 -1.36525,4.58258 -1.40406,7.00971 -0.0246,1.43579 -0.9525,2.62819 -2.32479,3.43958 -3.01625,1.78152 -4.9389,4.01813 -5.06942,7.48242 -0.067,1.80269 -1.61221,3.40783 -3.25966,4.33917 -5.18938,2.93158 -10.5128,5.49979 -16.86984,6.14185 -4.96006,0.50448 -9.87779,1.46756 -14.83431,2.13783 -3.80648,0.51859 -7.6059,1.01952 -11.43352,1.42875 -9.906,1.05834 -19.90373,0.83257 -29.80266,1.87325 -0.52565,0.0564 -1.05834,0.0529 -1.5875,0.0776 -16.78517,0.85373 -33.60209,0.47979 -50.39077,0.99483 -10.04359,0.30692 -20.09072,0.52565 -30.106067,0.25048 -12.643565,-0.34573 -25.290648,-0.2399 -37.916564,-0.6985 -4.120436,-0.14817 -8.329083,-0.0988 -12.393083,-0.6985 -3.432519,-0.50448 -6.840353,-0.20815 -10.234084,-0.5221 -3.167935,-0.29634 -5.965454,-1.14655 -7.806954,-3.83823 -1.164167,-1.70744 -2.797545,-3.17148 -4.339167,-4.64961 -2.54,-2.43064 -3.330231,-5.48216 -4.226295,-8.56898 -0.737288,-2.52941 -1.763871,-4.97064 -3.640667,-7.12258 -2.991538,-3.43606 -6.783916,-6.33235 -8.6077685,-10.5904 -0.567981,-1.3335 -0.3245644,-2.6811 -0.98425,-4.03577 -1.1818143,-2.41651 -2.2613143,-4.90008 -3.3549166,-7.366 -1.2100189,-2.72343 -1.710981,-5.61268 -1.7145,-8.55839 -0.53975,-2.15546 -0.6173523,-4.31094 0.042333,-6.45936 v 0 c 0.762,-0.53623 0.042333,-1.54868 0.8325644,-2.07785"/>
  </g></svg>