<svg aria-hidden="true" preserveAspectRatio="none" viewBox="-17.992 111.948 255.435 53.407" xmlns="http://www.w3.org/2000/svg" style="position:absolute; top:-2px; left:-4px; width:calc(100% + 8px); height:calc(100% + 4px); z-index:-1; overflow:visible;">
    <g transform="translate(219.4510,0) scale(-1,1)"><defs><filter id="ink-tex" x="-5%" y="-20%" width="110%" height="140%"><feTurbulence type="fractalNoise" baseFrequency="0.015 0.05" numOctaves="2" seed="3" result="noise"/><feColorMatrix in="noise" type="matrix" values="0 0 0 0 0  0 0 0 0 0  0 0 0 0 0  0.4 0.4 0.4 0 0.25" result="alphaMap"/><feComposite in="SourceGraphic" in2="alphaMap" operator="in"/></filter></defs>
    <path filter="url(#ink-tex)" d="m 68.076116,113.99605 c 7.464769,0 18.206852,-0.21378 28.896019,0.0787 6.621645,0.18098 13.204485,0.15664 19.677935,-0.26352 20.1295,-1.30528 40.33308,-1.22908 60.55079,-1.35925 9.45092,-0.061 18.77836,0.58772 28.16577,0.85195 4.43794,0.12489 6.70277,1.97132 8.14211,3.87844 0.69146,0.91405 1.48873,1.12572 3.21029,1.1871 3.74296,0.1337 7.53179,0.26141 11.176,0.67627 3.58421,0.40887 5.588,2.01119 7.10142,3.55248 0.66675,0.67909 1.19943,1.50918 1.70391,2.2867 1.53459,2.36326 0.82902,3.58352 -3.41489,5.03449 -1.32644,0.45368 -0.72319,0.88724 -0.31044,1.36067 1.55927,1.79176 1.65804,3.52883 -0.66323,5.19042 -0.19402,0.14111 -0.35983,0.44203 -0.49742,0.43533 -5.34106,-0.25295 -7.08377,3.07057 -12.10027,3.17111 -1.80271,0.036 -1.71804,0.85267 -0.97721,1.31375 1.17475,0.73448 0.92075,1.67887 1.91559,2.46768 0.84666,0.6731 0.65616,1.67957 -0.37042,2.56117 -2.19779,1.88559 0.15523,4.29471 4.30742,4.91101 3.11856,0.46285 6.51933,-0.11959 9.50031,0.95991 2.30365,0.83397 4.74133,4.06929 2.14842,4.63656 -2.69523,0.5902 -4.80836,1.68769 -7.8105,2.00307 -5.34459,0.56092 -10.51277,-0.21308 -15.75859,-0.31079 -0.79375,-0.0148 -1.61573,-0.21238 -2.40593,-0.0536 -8.88296,1.78259 -18.20334,1.12219 -27.37909,1.34797 -17.47308,0.42968 -34.93206,1.06962 -52.41221,1.38077 -13.16566,0.23424 -26.27487,0.81562 -39.415849,1.18604 -7.965704,0.22436 -15.931435,0.59408 -23.851287,1.09573 -6.907398,0.43779 -13.850064,0.23918 -20.768045,0.63852 -11.355917,0.65441 -22.941121,0.94121 -34.163,0.20567 -7.4859354,-0.49106 -14.9154353,-0.70026 -22.387269,-0.94791 -1.354666,-0.0448 -2.247185,-0.45614 -2.38125,-1.29152 -0.303397,-1.89054 -0.991314,-3.71969 -2.3495,-5.53438 -0.913685,-1.22096 -0.744352,-2.71251 1.7145,-3.78777 1.001898,-0.4378 1.845019,-1.16699 -0.567981,-1.30175 -1.915583,-0.10725 -2.441204,-1.24178 -2.384768,-1.54905 0.395102,-2.2038 -2.0955,-4.14408 -1.897936,-6.30308 0.06702,-0.6918 0.268102,-1.32327 1.389936,-1.74272 2.458852,-0.91828 2.709333,-2.6603 5.365749,-3.57435 1.2770648,-0.43885 0.762,-1.62383 0.01402,-2.19956 -1.707435,-1.31975 -0.567954,-2.5079 0.381,-3.58458 1.0936291,-1.24248 2.8892503,-2.32975 4.4767503,-3.44876 0.7761287,-0.5468 2.6705454,-0.67133 2.6070454,-1.52364 -0.091731,-1.18886 0.7443523,-2.55023 -0.5432954,-3.53872 -4.2086212,-3.22227 4.26862868,-8.3252 9.6625832,-8.69174 19.7414615,-1.34055 39.5604995,-1.74201 62.7027305,-1.40476"/>
  </g></svg>