<svg aria-hidden="true" preserveAspectRatio="none" viewBox="32.544 161.954 255.914 65.737" xmlns="http://www.w3.org/2000/svg" style="position:absolute; top:-2px; left:-4px; width:calc(100% + 8px); height:calc(100% + 4px); z-index:-1; overflow:visible;">
    <g transform="translate(321.0020,0) scale(-1,1)"><defs><filter id="ink-tex" x="-5%" y="-20%" width="110%" height="140%"><feTurbulence type="fractalNoise" baseFrequency="0.015 0.05" numOctaves="2" seed="3" result="noise"/><feColorMatrix in="noise" type="matrix" values="0 0 0 0 0  0 0 0 0 0  0 0 0 0 0  0.4 0.4 0.4 0 0.25" result="alphaMap"/><feComposite in="SourceGraphic" in2="alphaMap" operator="in"/></filter></defs>
    <path filter="url(#ink-tex)" d="m 281.57727,209.12815 c 3.71827,0.13441 6.3359,2.30645 6.82625,5.5961 0.20815,1.39242 -0.15875,2.6095 -1.53106,3.25297 -4.37444,2.05245 -9.02052,3.24308 -13.98059,3.56163 -8.35728,0.53589 -16.70753,1.15536 -25.05427,1.88244 -4.953,0.43108 -9.94833,0.8202 -14.92601,1.01634 -15.0989,0.59372 -30.20132,1.80729 -45.32138,0.93699 -5.74675,-0.33091 -11.50054,-0.24976 -17.25435,-0.63748 -8.47725,-0.57113 -17.01094,-0.0561 -25.43879,0.86855 -13.62782,1.49508 -27.28738,1.69968 -40.97515,1.54093 -8.31498,-0.0945 -16.629934,-0.405 -24.944915,-0.502 -2.264834,-0.0262 -3.340815,-0.61878 -3.062103,-2.79542 0.116417,-0.87982 -0.09879,-1.73001 -0.599731,-2.64372 -0.970147,-1.76599 -0.881935,-3.70485 0.592667,-5.80107 -4.8895,0.19402 -9.549685,0.2808 -14.19225,0.58772 -5.729102,0.37888 -11.444102,0.94827 -17.166166,1.42028 -2.437686,0.20109 -4.878917,0.41804 -7.323667,0.52811 -2.081397,0.0935 -3.39725,-0.56867 -3.280833,-2.78799 0.07056,-1.38854 -0.109352,-2.7291 -0.846667,-4.14266 -0.610314,-1.16983 -1.252352,-3.21911 1.241769,-4.06506 0.702046,-0.23918 0.649129,-0.97721 0.889,-1.51731 1.019546,-2.32092 3.309065,-3.12068 5.700898,-3.32139 2.084916,-0.17463 4.078102,-0.69922 6.138333,-0.8608 1.319398,-0.10371 1.883833,-0.53128 1.636898,-1.76247 -0.134065,-0.66534 -0.268129,-1.38501 -0.127,-2.03234 0.532685,-2.46062 -0.148167,-3.54155 -3.164417,-2.74675 -1.495795,0.39476 -2.684648,-0.18272 -2.50825,-1.81221 0.137584,-1.28021 -0.829045,-2.21755 -1.005416,-3.38595 -0.490379,-3.20886 0.934852,-5.94008 2.420037,-8.72066 2.116667,-3.96169 5.820834,-4.42101 10.117667,-4.44784 4.325064,-0.0264 8.646583,-0.61875 12.971647,-0.94789 0.941917,-0.072 1.414648,-0.29917 1.5875,-1.3321 0.553853,-3.30412 2.843398,-4.74557 6.505231,-4.79353 6.999103,-0.0917 14.00175,-0.0282 21.000852,-0.18733 7.073186,-0.16087 14.216936,-0.0198 21.201936,-0.88196 16.18898,-1.99954 32.50142,-1.92262 48.74683,-2.89454 12.81642,-0.76624 25.71398,-0.45472 38.52334,-1.28482 11.97326,-0.77576 23.93598,-1.22238 35.92689,-1.55644 2.50471,-0.0699 4.00402,0.7112 5.13996,2.23343 1.06539,1.43438 1.77096,3.13584 2.36363,4.79848 0.59266,1.66299 -0.71615,2.82681 -1.9685,3.76415 -0.58915,0.44167 -1.41465,0.68368 -1.22063,1.46791 0.27164,1.10135 1.39348,0.64063 2.12725,0.64415 8.02923,0.0388 16.05846,0.018 24.08414,0.0279 3.35844,0.004 5.94784,1.89018 6.63575,4.84751 0.32102,1.39136 1.32999,2.52836 1.38994,4.06506 0.10938,2.68253 -0.91017,4.54906 -3.71475,5.5104 -0.56444,0.19261 -1.10419,0.32348 -1.05479,0.97366 0.06,0.85514 0.80434,0.756 1.45696,0.83397 5.41163,0.64029 8.57956,7.54906 5.31989,11.5651 -0.0564,0.0677 -0.0847,0.22296 -0.11993,0.22153 -3.4149,-0.13335 -4.61082,3.47768 -7.77875,3.75428 -2.81517,1.29469 -4.4168,1.54234 -8.61483,1.53035 3.7112,-0.278 8.6642,-0.0723 13.61368,0.0114 1.02307,0.0169 2.08844,-0.16616 3.01625,0.42053"/>
  </g></svg>