<svg aria-hidden="true" preserveAspectRatio="none" viewBox="110.860 117.769 257.098 59.587" xmlns="http://www.w3.org/2000/svg" style="position:absolute; top:-2px; left:-4px; width:calc(100% + 8px); height:calc(100% + 4px); z-index:-1; overflow:visible;">
    <defs><filter id="ink-tex" x="-5%" y="-20%" width="110%" height="140%"><feTurbulence type="fractalNoise" baseFrequency="0.015 0.05" numOctaves="2" seed="3" result="noise"/><feColorMatrix in="noise" type="matrix" values="0 0 0 0 0  0 0 0 0 0  0 0 0 0 0  0.4 0.4 0.4 0 0.25" result="alphaMap"/><feComposite in="SourceGraphic" in2="alphaMap" operator="in"/></filter></defs>
    <path filter="url(#ink-tex)" d="m 327.74421,174.49232 c -15.44463,1.44815 -30.93156,1.52999 -46.4044,2.21085 -14.05466,0.61878 -28.02818,-0.83925 -42.04404,-1.00753 -6.42056,-0.0773 -12.82348,-1.40758 -19.24404,-1.57127 -5.30225,-0.13476 -10.6186,0.8449 -15.92792,0.91264 -8.24441,0.10477 -16.48177,1.53775 -24.7297,0.27516 -1.41113,-0.21555 -2.73405,0.31539 -4.10282,0.39335 -7.58473,0.43356 -15.09889,-1.20121 -22.6695,-1.13877 -0.50448,0.004 -1.3335,-0.10971 -1.29468,-0.70838 0.19402,-3.07445 -1.72863,-6.12316 0.13404,-9.24524 2.04258,-3.42688 1.92971,-3.35809 -1.38287,-3.87386 -3.26674,-0.508 -6.52992,-0.37182 -9.79665,-0.46355 -3.38667,-0.0952 -3.64067,-0.34748 -3.65477,-4.31306 -0.007,-1.53846 -0.43746,-1.59102 -1.53813,-1.45274 -2.40945,0.30375 -4.89302,1.07069 -7.04143,-1.29081 -0.89959,-0.98601 -1.9544,0.24306 -2.95982,0.2727 -3.53129,0.10371 -7.05554,0.36865 -10.58333,0.39123 -1.67921,0.0106 -3.31259,-0.42298 -2.9351,-3.28436 0.0635,-0.48154 -0.0353,-1.0407 -0.17992,-1.50707 -1.27352,-4.01637 -0.23635,-7.33672 3.00215,-9.33661 3.8241,-2.35832 7.97983,-3.55847 12.10378,-4.83976 3.91938,-1.21814 7.83522,-2.54247 11.81455,-3.39902 2.09902,-0.45155 4.1557,-1.13912 6.26885,-1.4799 4.56494,-0.73554 9.12283,-1.54164 13.69483,-2.20486 2.80811,-0.40711 5.64092,-0.8502 8.45257,-0.79305 1.49225,0.0303 2.44475,-0.4519 3.21733,-1.75824 2.14842,-3.63537 5.56329,-4.30318 8.7771,-5.13186 6.42409,-1.65558 12.99986,-1.1617 19.51567,-1.53564 13.52198,-0.7747 27.02631,-0.14287 40.4989,0.92393 10.57627,0.83784 21.13137,0.4953 31.69705,0.53199 17.22967,0.0603 34.47347,-0.30657 51.68549,0.42297 8.20208,0.34784 16.50648,0.0251 24.65916,1.85209 3.30907,0.7426 6.05015,6.81214 4.72723,10.53006 -0.35983,1.00683 -0.889,2.15336 -1.98966,1.99884 -1.88738,-0.26494 -2.54707,1.79952 -3.77825,2.72662 -0.80082,0.60219 -0.77259,1.68275 0.3951,2.29412 1.75331,0.92145 3.48543,1.8295 4.8401,3.65865 1.7639,2.37878 2.54,5.09729 2.83633,8.16116 0.25048,2.56435 -1.05833,4.36175 -2.59643,5.03943 -1.63335,0.71897 -2.89632,2.01437 -4.40619,2.77742 -1.42171,0.71826 -2.77638,1.73673 -4.41679,2.08245 5.96196,1.9244 11.71223,4.77767 18.07988,3.46745 1.93675,-0.39828 3.94758,-0.31468 5.92666,-0.35983 0.62794,-0.0145 1.49225,-0.12982 1.55927,1.08126 0.0812,1.42628 -0.86783,1.29717 -1.6016,1.38289 -3.24205,0.37783 -6.48055,0.8315 -9.73315,1.05975 -4.84365,0.34043 -9.36977,2.28353 -14.02643,3.61385 -2.76932,0.79199 -5.54922,2.10079 -8.51959,1.58997 -1.99673,1.33209 -4.32506,-0.23989 -6.32883,1.04458"/>
  </svg>