<svg aria-hidden="true" preserveAspectRatio="none" viewBox="-11.642 46.596 248.486 33.999" xmlns="http://www.w3.org/2000/svg" style="position:absolute; top:-2px; left:-4px; width:calc(100% + 8px); height:calc(100% + 4px); z-index:-1; overflow:visible;">
    <defs><filter id="ink-tex" x="-5%" y="-20%" width="110%" height="140%"><feTurbulence type="fractalNoise" baseFrequency="0.015 0.05" numOctaves="2" seed="3" result="noise"/><feColorMatrix in="noise" type="matrix" values="0 0 0 0 0  0 0 0 0 0  0 0 0 0 0  0.4 0.4 0.4 0 0.25" result="alphaMap"/><feComposite in="SourceGraphic" in2="alphaMap" operator="in"/></filter></defs>
    <path filter="url(#ink-tex)" d="m 207.05272,58.658462 c 2.35302,0.814917 4.64254,0.162277 6.79096,1.068917 4.27214,1.799166 6.731,6.0325 4.74839,9.34861 -0.66675,1.118306 0.1129,1.308806 1.30175,1.449917 3.21027,0.377473 6.43819,0.635 9.61319,1.227666 2.43065,0.451557 4.60375,1.06186 6.2865,2.46239 1.70746,1.421693 1.31233,2.42711 -1.03362,3.055054 -5.16467,1.386416 -10.51632,1.700389 -15.96321,1.830916 -29.05829,0.687917 -58.13071,1.016 -87.19609,0.744363 -19.55445,-0.179916 -39.108932,-0.458613 -58.659867,-0.229306 -8.882936,0.105833 -17.847019,0.864306 -26.645314,0.22225 -6.861519,-0.500944 -13.723038,-0.610307 -20.574,-1.008944 -3.806455,-0.22225 -7.612936,-0.500946 -11.426454,-0.575029 -2.511796,-0.04939 -3.675962,-0.906637 -3.46075,-2.610554 0.236352,-1.869723 -1.0018981,-2.0955 -3.1044625,-2.053167 -4.6566666,0.08467 -9.3168521,-0.0141 -13.9770377,0.03528 -2.8398787,0.03175 -4.1380828,-0.87136 -4.0851668,-2.980973 0.03175,-1.248833 0.165788,-2.529417 -1.051295,-3.668887 -0.402167,-0.377473 -0.261038,-1.199446 -0.06702,-1.76389 0.959564,-2.811639 6.1030641,-5.817303 10.1846853,-6.17361 5.771462,-0.500943 11.5358337,-0.892527 17.0814997,-2.45886 2.293064,-0.649113 5.005917,-0.776113 7.531814,-1.030113 13.253853,-1.32997 26.507731,-2.76225 39.825083,-3.658304 13.236231,-0.889 26.405417,-2.197806 39.652235,-3.048 18.04455,-1.157112 36.1103,-2.384779 54.15137,-1.372306 14.49564,0.814917 28.94189,0.328083 43.40225,0.631473 4.32506,0.09172 6.32883,1.47461 7.96218,4.37797 1.34763,2.395363 1.7145,4.342697 -1.28762,6.17714"/>
  </svg>