<svg aria-hidden="true" preserveAspectRatio="none" viewBox="46.567 68.027 253.287 42.356" xmlns="http://www.w3.org/2000/svg" style="position:absolute; top:-2px; left:-4px; width:calc(100% + 8px); height:calc(100% + 4px); z-index:-1; overflow:visible;">
    <g transform="translate(346.4210,0) scale(-1,1)"><defs><filter id="ink-tex" x="-5%" y="-20%" width="110%" height="140%"><feTurbulence type="fractalNoise" baseFrequency="0.015 0.05" numOctaves="2" seed="3" result="noise"/><feColorMatrix in="noise" type="matrix" values="0 0 0 0 0  0 0 0 0 0  0 0 0 0 0  0.4 0.4 0.4 0 0.25" result="alphaMap"/><feComposite in="SourceGraphic" in2="alphaMap" operator="in"/></filter></defs>
    <path filter="url(#ink-tex)" d="m 232.74329,81.016932 c 8.94292,0.385234 17.88583,0.761649 26.82875,1.157465 7.80698,0.345369 15.56808,0.856544 23.28333,1.630892 3.30907,0.331965 6.64634,0.511881 9.95188,0.948266 4.5085,0.595136 8.77004,4.538134 6.33942,6.482292 -1.12184,0.897115 -1.88032,1.82386 -2.74463,2.76366 -0.72319,0.789165 -1.43933,1.95721 -4.10279,1.749073 -0.84667,-0.06632 -1.15358,0.268817 -1.4464,0.623359 -0.30691,0.367945 -0.92427,0.673803 -1.1571,1.048808 -0.80081,1.297162 -3.18206,1.337733 -5.08,1.84926 -2.33892,0.630767 1.69685,1.810103 -0.51506,2.823283 -1.84857,0.84667 -2.96686,2.11137 -5.99017,1.98896 -1.83092,-0.0741 -1.24177,1.02623 -2.47298,1.27494 -2.75519,0.55598 -5.51037,1.23119 -8.45254,1.32785 -7.89165,0.26 -15.69156,0.901 -23.54088,1.30599 -12.29077,0.63429 -24.62387,0.94756 -36.93583,1.3028 -9.64845,0.27835 -19.34633,0.48296 -29.05829,0.49883 -14.60852,0.0243 -29.22058,0.26212 -43.81852,-0.14958 -15.75858,-0.4445 -31.52071,-0.88511 -47.229893,-1.905 -6.131269,-0.39828 -12.319,-0.70767 -18.397352,-1.26188 -3.940546,-0.35913 -7.986898,-0.56586 -11.835712,-1.34797 -2.458853,-0.49953 -3.01625,-1.35325 -3.256122,-2.46062 -0.201083,-0.93768 -0.299878,-1.8602 -0.740833,-2.808111 -0.627962,-1.350082 -1.622795,-2.416527 -3.700648,-3.30976 -1.534583,-0.659342 -0.515064,-1.766359 -1.224147,-2.517775 -2.166038,-2.291998 0.03529,-3.85939 2.614083,-5.485694 2.779898,-1.751896 6.6675,-2.124781 10.675064,-2.248958 2.465917,-0.07655 4.607269,-0.842082 7.154334,-0.65899 0.758481,0.05468 0.941916,-0.312915 0.896064,-0.615598 -0.15875,-0.9906 0.871352,-1.615368 2.155455,-2.262362 1.301749,-0.656167 1.210045,-1.137356 -1.005417,-1.395942 -6.618102,-0.772231 -9.295686,-2.597856 -8.41375,-5.978525 0.373962,-1.421696 2.0955,-2.656416 4.751917,-3.386666 4.3815,-1.202973 9.309814,-1.471084 14.09348,-1.89089 11.003148,-0.959556 22.189727,-1.248833 33.337497,-1.516944 8.51959,-0.204612 17.10619,0.151694 25.64694,0.07055 18.87363,-0.183443 37.70135,0.691446 56.53968,1.12889 9.98715,0.229306 19.99192,1.023056 29.86265,1.947333 3.2385,0.30339 7.05908,0.328084 9.84956,1.912057 1.79211,1.019527 2.72696,2.159 3.54542,3.323166 0.9525,1.364192 -1.17829,2.882546 -4.14867,3.317875 -0.75848,0.111125 -1.55223,0.166159 -2.32833,0.247296 0.0246,0.159456 0.0459,0.318913 0.0705,0.478366"/>
  </g></svg>