<svg aria-hidden="true" preserveAspectRatio="none" viewBox="16.933 140.523 256.983 63.679" xmlns="http://www.w3.org/2000/svg" style="position:absolute; top:-2px; left:-4px; width:calc(100% + 8px); height:calc(100% + 4px); z-index:-1; overflow:visible;">
    <g transform="translate(290.8490,0) scale(-1,1)"><defs><filter id="ink-tex" x="-5%" y="-20%" width="110%" height="140%"><feTurbulence type="fractalNoise" baseFrequency="0.015 0.05" numOctaves="2" seed="3" result="noise"/><feColorMatrix in="noise" type="matrix" values="0 0 0 0 0  0 0 0 0 0  0 0 0 0 0  0.4 0.4 0.4 0 0.25" result="alphaMap"/><feComposite in="SourceGraphic" in2="alphaMap" operator="in"/></filter></defs>
    <path filter="url(#ink-tex)" d="m 172.0225,203.52583 c -26.29959,0 -44.34769,0.31502 -62.37814,-0.12665 -9.683753,-0.23741 -19.388669,-0.21625 -29.058317,-0.77928 -6.910916,-0.40288 -13.81125,-0.56303 -20.722166,-0.60431 -2.187231,-0.0135 -4.296834,-0.43429 -6.424084,-0.81351 -0.243416,-0.0434 -0.529166,-0.13158 -0.694981,-0.29705 -3.781769,-3.77825 -5.767916,-8.31038 -5.817287,-13.63697 0,-0.32562 0.01058,-0.74118 0.201083,-0.96448 1.647454,-1.95864 0.05292,-1.79176 -1.2065,-1.80835 -3.933481,-0.0533 -7.870481,-0.20603 -11.800417,-0.0921 -3.146795,0.091 -6.237128,-0.47061 -9.228666,-1.05762 -3.831167,-0.75213 -5.362231,-4.12326 -6.360583,-7.57377 -0.169334,-0.57611 -0.271648,-1.1529 -0.613834,-1.67394 -2.024962,-3.05364 -0.610314,-5.56612 1.379353,-7.92692 0.592666,-0.70133 1.393481,-1.10913 2.448268,-1.07632 1.474629,0.0462 2.550584,-0.40252 3.305546,-1.99213 0.843121,-1.77377 2.853954,-2.55482 4.744852,-2.71111 1.721564,-0.14181 1.996731,-0.96448 1.629833,-2.18617 -0.758481,-2.53365 0.903103,-4.37198 1.975565,-6.21242 0.486833,-0.83677 2.360083,-0.97858 3.647704,-1.24177 0.92075,-0.18872 1.485212,-0.34255 1.876796,-1.39065 0.560916,-1.4919 2.176621,-2.20485 3.584204,-2.5855 2.815167,-0.76272 5.704417,-1.28588 8.593667,-1.8101 15.645712,-2.84162 31.421916,-1.23296 47.134647,-1.4097 8.367897,-0.0942 16.774587,0.34782 25.145997,1.04844 2.42007,0.20286 4.87892,0.003 7.32015,0.008 11.12308,0.0209 22.24614,0.16193 33.3657,0.0214 4.91419,-0.0621 9.7649,-1.23295 14.70025,-1.39594 0.93134,-0.03 1.87677,-0.16264 2.82224,-0.19896 20.3976,-0.77965 40.81285,-0.0289 61.21045,-0.56481 8.57956,-0.22505 17.1309,-1.30704 25.72808,-1.44674 3.07623,-0.0504 3.69359,0.46815 3.80648,3.54965 0.0882,2.44051 0.33161,4.71699 1.32998,7.09155 0.58209,1.38924 0.15521,3.87278 -1.43229,5.31177 -0.81137,0.73766 -1.52046,1.36242 -1.56985,2.5668 -0.0317,0.79058 -0.64911,1.43582 -1.29117,1.91347 -2.07785,1.54622 -4.26156,3.12703 -6.99206,2.80318 -3.17852,-0.37711 -5.64444,0.9525 -8.15975,2.4779 -0.66675,0.40606 -0.43392,0.88972 -0.4445,1.37126 -0.0494,2.22673 0.1905,4.5099 -2.19779,5.94749 -0.48684,0.2935 -0.85021,1.07632 -0.93488,1.67886 -0.28927,2.10748 -1.96144,2.91113 -3.54894,3.65972 -1.4605,0.69003 -3.39373,0.87664 -1.68981,3.12949 -0.98777,1.71873 0.10583,4.11691 -1.64394,5.49661 -1.13948,0.90064 -1.58398,2.08563 -2.10256,3.26284 -0.65969,1.49897 -1.36525,2.93336 -2.58233,4.08305 -0.27163,0.25718 -0.67027,0.3782 -0.78317,0.84915 -1.17827,4.94099 -5.26696,6.20218 -9.4756,6.5458 -21.65702,1.76882 -43.3705,0.42685 -56.79723,0.76094"/>
  </g></svg>