<svg aria-hidden="true" preserveAspectRatio="none" viewBox="-24.638 48.474 247.160 38.727" xmlns="http://www.w3.org/2000/svg" style="position:absolute; top:-2px; left:-4px; width:calc(100% + 8px); height:calc(100% + 4px); z-index:-1; overflow:visible;">
    <defs><filter id="ink-tex" x="-5%" y="-20%" width="110%" height="140%"><feTurbulence type="fractalNoise" baseFrequency="0.015 0.05" numOctaves="2" seed="3" result="noise"/><feColorMatrix in="noise" type="matrix" values="0 0 0 0 0  0 0 0 0 0  0 0 0 0 0  0.4 0.4 0.4 0 0.25" result="alphaMap"/><feComposite in="SourceGraphic" in2="alphaMap" operator="in"/></filter></defs>
    <path filter="url(#ink-tex)" d="m 211.23337,62.426492 c 2.89737,0.388054 3.28507,3.31611 3.01239,3.66536 -1.58152,2.024944 -4.61577,2.988027 -7.60378,3.344334 -3.08751,0.366889 -6.31754,0.271639 -9.4615,0.116416 -2.7799,-0.137583 -4.35999,1.100667 -4.5533,2.645833 -0.28858,2.296584 2.61901,1.439334 4.22238,1.559277 6.8961,0.515057 13.81302,0.87489 20.71336,1.361723 1.10207,0.07761 2.87409,-0.239889 2.93475,1.139474 0.0519,1.185333 -1.49719,1.629833 -2.68181,1.534583 -3.25615,-0.25753 -4.31554,1.60161 -6.33802,2.843387 -3.89395,2.391833 -9.17609,2.7305 -14.09345,3.009196 -7.37412,0.419804 -14.77682,0.183444 -22.18973,0.68086 -13.98905,0.941915 -28.0797,0.53975 -42.10367,0.952505 C 91.716861,86.50005 50.324386,87.10683 8.9470832,86.40127 -0.78887679,86.23546 -10.644432,85.74863 -20.44142,85.35705 c -3.35139,-0.13759 -5.632805,-3.474865 -3.146074,-4.896558 2.698044,-1.545167 4.569177,-3.51014 6.971594,-5.14703 1.729317,-1.178277 4.048831,-1.509887 6.528152,-1.49225 12.0106732,0.07761 24.022404,0.03528 36.048597,-0.211666 C 20.898841,72.194909 15.611056,72.586492 10.40335,72.431269 2.7057392,72.205492 -0.67986879,68.317879 2.3310892,63.043852 c 0.728838,-1.277056 0.04515,-2.741083 1.415696,-4.007556 0.866423,-0.797277 -0.297392,-1.61925 -1.609019,-1.478137 -2.80387599,0.29986 -6.603648,-0.927807 -7.54521,2.529416 -0.259646,0.9525 -1.464029,1.061861 -2.21615,0.747888 -1.855613,-0.776111 -2.16535,-2.430638 -2.8631462,-3.732388 -0.735893,-1.375833 0.8117422,-2.645833 2.3840732,-2.9845 2.661002,-0.578556 5.130094,-1.47461 8.11141901,-1.580443 19.79788879,-0.709083 39.57319879,-1.778 59.37108579,-2.490613 10.254192,-0.366887 20.554598,-0.02822 30.809496,-0.391583 27.801356,-0.987777 55.615416,-0.6985 83.414306,-0.391584 14.31994,0.15875 28.6085,1.506363 42.98172,1.372307 2.19816,-0.02117 5.37845,-0.17639 5.87306,2.487083 0.48684,2.624667 -1.91383,3.340807 -4.66762,3.884083 -8.37141,1.651 -16.9178,2.367138 -25.5284,2.772834 -2.84514,1.36525 -6.46324,0.850193 -8.30863,1.770943 8.40354,0.536223 17.87737,-0.388056 27.2796,0.87489"/>
  </svg>