<svg aria-hidden="true" preserveAspectRatio="none" viewBox="-5.292 43.685 260.232 80.996" xmlns="http://www.w3.org/2000/svg" style="position:absolute; top:-2px; left:-4px; width:calc(100% + 8px); height:calc(100% + 4px); z-index:-1; overflow:visible;">
    <defs><filter id="ink-tex" x="-5%" y="-20%" width="110%" height="140%"><feTurbulence type="fractalNoise" baseFrequency="0.015 0.05" numOctaves="2" seed="3" result="noise"/><feColorMatrix in="noise" type="matrix" values="0 0 0 0 0  0 0 0 0 0  0 0 0 0 0  0.4 0.4 0.4 0 0.25" result="alphaMap"/><feComposite in="SourceGraphic" in2="alphaMap" operator="in"/></filter></defs>
    <path filter="url(#ink-tex)" d="m 16.895118,61.415451 c 1.135936,-4.907122 5.595065,-6.900334 10.431648,-8.396103 5.595038,-1.732147 11.518185,-1.979083 17.360185,-2.695231 5.383398,-0.659685 10.678584,0.05646 16.026686,-0.292787 6.5405,-0.430398 13.081,-0.899584 19.603878,-1.464046 6.219455,-0.53975 12.431871,-1.135935 18.661936,-1.633352 6.304149,-0.508 12.632979,-0.892519 18.915939,-1.552231 13.33148,-1.397 26.68764,-1.171205 40.05439,-1.195917 7.54944,-0.01402 15.06712,0.377481 22.59894,0.567981 3.91935,0.09877 5.57035,1.883834 6.15598,5.192898 0.58208,3.259667 0.41627,6.480519 0.19402,9.719019 -0.0741,1.093602 0.19402,1.658064 1.60515,1.502833 6.62868,-0.733769 13.2997,-0.292814 19.9531,-0.567981 5.63385,-0.232833 11.29593,-0.102288 16.9404,-0.402167 4.01108,-0.211666 8.01158,-0.529166 12.0156,-0.871352 3.43958,-0.292814 6.94973,0.08467 10.4281,0.144648 0.74083,0.01058 0.8114,0.416269 1.07598,0.889 1.78152,3.153833 2.15194,6.473454 1.9685,9.93775 -0.16227,3.051519 -1.2206,6.244166 1.21357,9.052268 0.14816,0.169334 0.17637,0.511519 0.0847,0.719667 -0.92429,2.134315 0.762,4.074583 1.79562,5.298731 1.69334,1.996705 0.79375,3.471333 -0.007,4.974167 -0.6985,1.308788 -0.99131,2.592916 -0.87138,3.898185 0.22225,2.434167 -1.11477,4.046353 -3.2526,5.418667 -2.39535,1.538102 -4.61433,3.224402 -5.67973,5.729102 -0.0917,0.21873 -0.34925,0.4304 -0.34219,0.63855 0.14817,3.8382 -2.95981,5.58445 -6.43115,6.84035 -2.89628,1.04775 -5.39395,2.74108 -8.61128,3.34081 -3.11505,0.57854 -6.20184,0.84312 -9.35567,1.0301 -4.08871,0.24342 -8.20563,0.26107 -12.26608,0.87136 -0.4939,0.0741 -1.01248,0.0811 -1.51697,0.0529 -7.8246,-0.41627 -15.64216,0.23284 -23.46676,0.24697 -7.874,0.0106 -15.76211,0.37041 -23.63611,0.67026 -6.48406,0.24694 -12.98575,0.42334 -19.44864,0.84667 -5.93371,0.38807 -11.89212,0.69498 -17.82586,1.21708 -3.4925,0.3034 -7.04498,0.67382 -10.57626,0.58561 -3.31259,-0.0811 -6.5405,0.84314 -9.85309,0.53623 -1.428747,0.63148 -3.055062,-0.19757 -4.476747,0.47977 -4.847167,-0.30692 -9.676712,0.30339 -14.492129,0.52564 -8.664204,0.40217 -17.310788,0.74084 -25.975019,0.43744 -2.250731,-0.0776 -4.395602,0.46567 -6.646333,0.47273 -4.445,0.0106 -7.926916,-1.27352 -10.117666,-4.56142 -1.538103,-2.30716 -4.187481,-3.89114 -5.432769,-6.35 -0.723212,-1.42523 -1.778,-2.75873 -1.869731,-4.37091 -0.04585,-0.84667 -0.620898,-1.04423 -1.414648,-1.01952 -4.974167,0.15875 -9.923621,-0.381 -14.933083,0.11287 -3.520705,0.34573 -6.484038,-1.28058 -8.2726213,-3.90877 C 6.047096,102.38353 4.3784483,101.08178 3.0872816,99.522515 1.2599104,97.321181 -0.35582061,94.9752 -0.42638498,92.128284 -1.124885,91.461534 -0.41236206,90.491412 -1.0860706,89.821117 l -0.00344,-0.01058 c -0.8607954,-0.5715 -0.00344,-1.615705 -0.8078787,-2.204853 -0.765519,-1.763897 -1.5310379,-3.531314 -2.2965833,-5.298731 -0.9383713,-0.85725 0.1940454,-2.106083 -0.7408333,-2.963333 v -0.0034 c -0.5926667,-2.010834 -0.41275,-4.0005 0.2857499,-5.979584 0.1622955,-1.954397 0.9877955,-3.400769 3.615981,-3.563064 0.87489774,-0.05644 0.92781441,-0.687917 0.92075003,-1.252352 -0.0564356,-3.436065 3.40783327,-5.542148 7.04849987,-5.309315 1.5486856,0.0988 3.1432501,-0.28575 4.7166481,-0.451538 1.464019,-1.27 3.591269,-0.638545 5.242269,-1.368795"/>
  </svg>