<svg viewBox="299.99 2377.36 1602.48 100" xmlns="http://www.w3.org/2000/svg" preserveAspectRatio="none" aria-hidden="true"><g fill="SECTION_COLOUR" opacity="SECTION_OPACITY"><g transform="scale(0.669344)"><path id="path11" d="m 11212.6,2353.7 c -81.4,0 -163.4,8.5 -246.5,27.9 -213.1,49.9 -407.8,167.8 -596.1,281.9 -104.1,63 -202.4,122.6 -302.6,170.8 -495.17,238.2 -1033.72,191.3 -1554.54,145.9 L 3620.04,2554.1 c -74.29,-6.4 -139.73,48.5 -146.2,122.7 -6.47,74.3 48.5,139.8 122.78,146.2 l 4892.81,426.2 c 531.12,46.2 1133.13,98.7 1695.07,-171.6 111.9,-53.9 220.4,-119.6 325.4,-183.2 178.1,-107.9 346.3,-209.8 517.7,-249.8 300.1,-70.2 609.3,50.2 936.7,177.6 292.6,113.9 595.2,231.8 912.2,217.5 241.4,-10.7 469.8,-97.3 690.7,-180.9 106,-40.2 206.2,-78.1 307.6,-108.2 506,-150.3 1039.7,-97.1 1555.8,-45.6 l 3225.4,321.5 c 793.1,79.1 1691.9,168.7 2505.7,-339.9 63.2,-39.5 82.5,-122.8 42.9,-186 -39.5,-63.2 -122.8,-82.5 -186,-43 -735.6,459.8 -1585.7,375 -2335.8,300.3 l -3225.5,-321.6 c -542,-54 -1102.5,-109.9 -1659.4,55.4 -110.9,32.9 -220.4,74.4 -326.4,114.6 -210.2,79.6 -408.8,154.9 -607,163.7 -260.1,11.3 -523.5,-90.9 -802.3,-199.4 -274.9,-107 -557.1,-216.8 -849.6,-216.9" transform="matrix(0.13333333,0,0,-0.13333333,0,4000)" /></g></g></svg>