<svg viewBox="126.23 917.79 771.47 100" xmlns="http://www.w3.org/2000/svg" preserveAspectRatio="none" aria-hidden="true"><g fill="SECTION_COLOUR" opacity="SECTION_OPACITY"><g transform="translate(1023.9300,0) scale(-1,1)"><g transform="scale(0.312032)"><path id="path10" d="m 5353.98,5649 c -293.56,0 -579.1,47.5 -842.65,142.5 -613.03,221 -1084.98,688 -1364.81,1350.6 -29,68.7 3.16,147.8 71.84,176.9 68.69,28.9 147.88,-3.2 176.89,-71.9 574.69,-1360.7 1853.47,-1494.8 2773.92,-1196.3 454.37,147.4 907.29,384.6 1345.28,613.9 578.76,303.1 1177.22,616.4 1805.03,740.4 1129.82,223.2 2248.52,-178.2 3330.42,-566.3 379.2,-136 771.3,-276.7 1155.1,-386.7 2506.7,-718.5 5160.3,-230 7471.8,1375.5 61.3,42.5 145.4,27.3 187.9,-33.9 42.6,-61.2 27.4,-145.4 -33.8,-187.9 -1181.9,-820.9 -2450.5,-1360.1 -3770.4,-1602.7 -524,-96.3 -1048.2,-144.4 -1570.1,-144.4 -794.4,0 -1583.7,111.4 -2359.8,333.9 -392.2,112.4 -788.6,254.6 -1171.9,392.1 -1047.3,375.7 -2130.3,764.2 -3186.91,555.5 C 8782.3,7023.8 8201.44,6719.7 7639.7,6425.5 7191.76,6191 6728.57,5948.4 6252.48,5794 c -297.99,-96.7 -602.33,-145 -898.5,-145" transform="matrix(0.13333333,0,0,-0.13333333,0,4000)" /></g></g></g></svg>