<svg viewBox="1741.92 1136.91 1636.82 100" xmlns="http://www.w3.org/2000/svg" preserveAspectRatio="none" aria-hidden="true"><g fill="SECTION_COLOUR" opacity="SECTION_OPACITY"><g transform="translate(5120.6600,0) scale(-1,1)"><g transform="scale(0.556204)"><path id="path15" d="m 40611.6,13433.7 c -374,0 -746.5,19.2 -1113.1,38.2 l -15769.6,815.5 c -74.5,3.9 -131.7,67.4 -127.9,141.8 3.9,74.5 67.3,131.5 141.8,127.9 l 15769.7,-815.6 c 755.3,-39 1536.3,-79.4 2287.7,54.3 261.7,46.6 526.3,115.8 782.1,182.8 328.5,85.9 668.3,174.8 1014.7,220 438.6,57.3 1260.9,76.2 1839.5,-440.6 55.6,-49.7 60.4,-135 10.8,-190.6 -49.7,-55.6 -135,-60.4 -190.6,-10.8 -498.5,445.2 -1231.9,425.6 -1624.8,374.3 -329.4,-43.1 -660.8,-129.7 -981.3,-213.6 -260.9,-68.2 -530.7,-138.8 -803.1,-187.3 -409.8,-72.9 -823.8,-96.3 -1235.9,-96.3" transform="matrix(0.13333333,0,0,-0.13333333,0,4000)" /></g></g></g></svg>