<svg viewBox="189.48 1146.20 1120.89 100" xmlns="http://www.w3.org/2000/svg" preserveAspectRatio="none" aria-hidden="true"><g fill="SECTION_COLOUR" opacity="SECTION_OPACITY"><g transform="scale(0.455021)"><path id="path9" d="m 3341.04,9571.6 c -29.56,0 -59.31,9.6 -84.19,29.5 -58.25,46.6 -67.73,131.5 -21.19,189.8 703.22,880 1626.5,1138.1 2277.22,1199.5 730.29,69.1 1462.09,-59.5 2169.79,-183.7 76.75,-13.5 153.47,-27 230.15,-40.2 4457.48,-768.5 8970.48,-691.7 13413.68,228.4 73,15.2 144.4,-31.8 159.6,-104.8 15.1,-73 -31.9,-144.4 -104.9,-159.6 -2440.4,-505.3 -4902,-758.2 -7363.8,-758.2 -2053.9,0 -4107.82,176 -6150.46,528.1 -76.95,13.3 -153.94,26.8 -230.97,40.3 -690.08,121.2 -1403.64,246.5 -2097.69,180.9 -598.7,-56.5 -1447.57,-293.2 -2091.69,-1099.3 -26.66,-33.3 -65.93,-50.7 -105.55,-50.7" transform="matrix(0.13333333,0,0,-0.13333333,0,4000)" /></g></g></svg>